<svg width="143" height="48" viewBox="0 0 143 48" fill="none" xmlns="http://www.w3.org/2000/svg">
<path d="M0.728 11.456V1.28H18.456V48H7.064V11.456H0.728ZM25.9425 24C25.9425 16.6613 27.3505 10.88 30.1665 6.656C33.0252 2.432 37.6118 0.319996 43.9265 0.319996C50.2412 0.319996 54.8065 2.432 57.6225 6.656C60.4812 10.88 61.9105 16.6613 61.9105 24C61.9105 31.424 60.4812 37.248 57.6225 41.472C54.8065 45.696 50.2412 47.808 43.9265 47.808C37.6118 47.808 33.0252 45.696 30.1665 41.472C27.3505 37.248 25.9425 31.424 25.9425 24ZM51.1585 24C51.1585 19.6907 50.6892 16.384 49.7505 14.08C48.8118 11.7333 46.8705 10.56 43.9265 10.56C40.9825 10.56 39.0412 11.7333 38.1025 14.08C37.1638 16.384 36.6945 19.6907 36.6945 24C36.6945 26.9013 36.8652 29.312 37.2065 31.232C37.5478 33.1093 38.2305 34.6453 39.2545 35.84C40.3212 36.992 41.8785 37.568 43.9265 37.568C45.9745 37.568 47.5105 36.992 48.5345 35.84C49.6012 34.6453 50.3052 33.1093 50.6465 31.232C50.9878 29.312 51.1585 26.9013 51.1585 24ZM67.6925 24C67.6925 16.6613 69.1005 10.88 71.9165 6.656C74.7752 2.432 79.3618 0.319996 85.6765 0.319996C91.9912 0.319996 96.5565 2.432 99.3725 6.656C102.231 10.88 103.661 16.6613 103.661 24C103.661 31.424 102.231 37.248 99.3725 41.472C96.5565 45.696 91.9912 47.808 85.6765 47.808C79.3618 47.808 74.7752 45.696 71.9165 41.472C69.1005 37.248 67.6925 31.424 67.6925 24ZM92.9085 24C92.9085 19.6907 92.4392 16.384 91.5005 14.08C90.5618 11.7333 88.6205 10.56 85.6765 10.56C82.7325 10.56 80.7912 11.7333 79.8525 14.08C78.9138 16.384 78.4445 19.6907 78.4445 24C78.4445 26.9013 78.6152 29.312 78.9565 31.232C79.2978 33.1093 79.9805 34.6453 81.0045 35.84C82.0712 36.992 83.6285 37.568 85.6765 37.568C87.7245 37.568 89.2605 36.992 90.2845 35.84C91.3512 34.6453 92.0552 33.1093 92.3965 31.232C92.7378 29.312 92.9085 26.9013 92.9085 24ZM142.979 30.528H131.843V41.92H121.475V30.528H110.339V20.736H121.475V9.28H131.843V20.736H142.979V30.528Z" fill="white"/>
</svg>
