<svg width="197" height="48" viewBox="0 0 197 48" fill="none" xmlns="http://www.w3.org/2000/svg">
<path d="M0.496 39.232C1.94667 38.08 2.608 37.5467 2.48 37.632C6.66133 34.176 9.94667 31.3387 12.336 29.12C14.768 26.9013 16.816 24.576 18.48 22.144C20.144 19.712 20.976 17.344 20.976 15.04C20.976 13.2907 20.5707 11.9253 19.76 10.944C18.9493 9.96266 17.7333 9.472 16.112 9.472C14.4907 9.472 13.2107 10.0907 12.272 11.328C11.376 12.5227 10.928 14.2293 10.928 16.448H0.368C0.453333 12.8213 1.22133 9.792 2.672 7.36C4.16533 4.928 6.10667 3.136 8.496 1.984C10.928 0.831997 13.616 0.255997 16.56 0.255997C21.6373 0.255997 25.456 1.55733 28.016 4.16C30.6187 6.76266 31.92 10.1547 31.92 14.336C31.92 18.9013 30.3627 23.1467 27.248 27.072C24.1333 30.9547 20.1653 34.752 15.344 38.464H32.624V47.36H0.496V39.232ZM37.4425 24C37.4425 16.6613 38.8505 10.88 41.6665 6.656C44.5252 2.432 49.1118 0.319996 55.4265 0.319996C61.7412 0.319996 66.3065 2.432 69.1225 6.656C71.9812 10.88 73.4105 16.6613 73.4105 24C73.4105 31.424 71.9812 37.248 69.1225 41.472C66.3065 45.696 61.7412 47.808 55.4265 47.808C49.1118 47.808 44.5252 45.696 41.6665 41.472C38.8505 37.248 37.4425 31.424 37.4425 24ZM62.6585 24C62.6585 19.6907 62.1892 16.384 61.2505 14.08C60.3118 11.7333 58.3705 10.56 55.4265 10.56C52.4825 10.56 50.5412 11.7333 49.6025 14.08C48.6638 16.384 48.1945 19.6907 48.1945 24C48.1945 26.9013 48.3652 29.312 48.7065 31.232C49.0478 33.1093 49.7305 34.6453 50.7545 35.84C51.8212 36.992 53.3785 37.568 55.4265 37.568C57.4745 37.568 59.0105 36.992 60.0345 35.84C61.1012 34.6453 61.8052 33.1093 62.1465 31.232C62.4878 29.312 62.6585 26.9013 62.6585 24ZM79.1925 24C79.1925 16.6613 80.6005 10.88 83.4165 6.656C86.2752 2.432 90.8618 0.319996 97.1765 0.319996C103.491 0.319996 108.057 2.432 110.873 6.656C113.731 10.88 115.161 16.6613 115.161 24C115.161 31.424 113.731 37.248 110.873 41.472C108.057 45.696 103.491 47.808 97.1765 47.808C90.8618 47.808 86.2752 45.696 83.4165 41.472C80.6005 37.248 79.1925 31.424 79.1925 24ZM104.409 24C104.409 19.6907 103.939 16.384 103.001 14.08C102.062 11.7333 100.121 10.56 97.1765 10.56C94.2325 10.56 92.2912 11.7333 91.3525 14.08C90.4138 16.384 89.9445 19.6907 89.9445 24C89.9445 26.9013 90.1152 29.312 90.4565 31.232C90.7978 33.1093 91.4805 34.6453 92.5045 35.84C93.5712 36.992 95.1285 37.568 97.1765 37.568C99.2245 37.568 100.761 36.992 101.785 35.84C102.851 34.6453 103.555 33.1093 103.897 31.232C104.238 29.312 104.409 26.9013 104.409 24ZM120.943 24C120.943 16.6613 122.351 10.88 125.167 6.656C128.025 2.432 132.612 0.319996 138.927 0.319996C145.241 0.319996 149.807 2.432 152.623 6.656C155.481 10.88 156.911 16.6613 156.911 24C156.911 31.424 155.481 37.248 152.623 41.472C149.807 45.696 145.241 47.808 138.927 47.808C132.612 47.808 128.025 45.696 125.167 41.472C122.351 37.248 120.943 31.424 120.943 24ZM146.159 24C146.159 19.6907 145.689 16.384 144.751 14.08C143.812 11.7333 141.871 10.56 138.927 10.56C135.983 10.56 134.041 11.7333 133.103 14.08C132.164 16.384 131.695 19.6907 131.695 24C131.695 26.9013 131.865 29.312 132.207 31.232C132.548 33.1093 133.231 34.6453 134.255 35.84C135.321 36.992 136.879 37.568 138.927 37.568C140.975 37.568 142.511 36.992 143.535 35.84C144.601 34.6453 145.305 33.1093 145.647 31.232C145.988 29.312 146.159 26.9013 146.159 24ZM196.229 30.528H185.093V41.92H174.725V30.528H163.589V20.736H174.725V9.28H185.093V20.736H196.229V30.528Z" fill="white"/>
</svg>
