<svg width="157" height="48" viewBox="0 0 157 48" fill="none" xmlns="http://www.w3.org/2000/svg">
<path d="M30.776 10.816H10.808V19.648C11.6613 18.7093 12.856 17.9413 14.392 17.344C15.928 16.7467 17.592 16.448 19.384 16.448C22.584 16.448 25.2293 17.1733 27.32 18.624C29.4533 20.0747 31.0107 21.952 31.992 24.256C32.9733 26.56 33.464 29.056 33.464 31.744C33.464 36.736 32.056 40.704 29.24 43.648C26.424 46.5493 22.456 48 17.336 48C13.9227 48 10.9573 47.424 8.44 46.272C5.92267 45.0773 3.98133 43.4347 2.616 41.344C1.25067 39.2533 0.504 36.8427 0.376 34.112H11.064C11.32 35.4347 11.9387 36.544 12.92 37.44C13.9013 38.2933 15.2453 38.72 16.952 38.72C18.9573 38.72 20.4507 38.08 21.432 36.8C22.4133 35.52 22.904 33.8133 22.904 31.68C22.904 29.5893 22.392 27.9893 21.368 26.88C20.344 25.7707 18.8507 25.216 16.888 25.216C15.4373 25.216 14.2427 25.5787 13.304 26.304C12.3653 26.9867 11.7467 27.904 11.448 29.056H0.888V1.216H30.776V10.816ZM39.505 24C39.505 16.6613 40.913 10.88 43.729 6.656C46.5877 2.432 51.1743 0.319996 57.489 0.319996C63.8037 0.319996 68.369 2.432 71.185 6.656C74.0437 10.88 75.473 16.6613 75.473 24C75.473 31.424 74.0437 37.248 71.185 41.472C68.369 45.696 63.8037 47.808 57.489 47.808C51.1743 47.808 46.5877 45.696 43.729 41.472C40.913 37.248 39.505 31.424 39.505 24ZM64.721 24C64.721 19.6907 64.2517 16.384 63.313 14.08C62.3743 11.7333 60.433 10.56 57.489 10.56C54.545 10.56 52.6037 11.7333 51.665 14.08C50.7263 16.384 50.257 19.6907 50.257 24C50.257 26.9013 50.4277 29.312 50.769 31.232C51.1103 33.1093 51.793 34.6453 52.817 35.84C53.8837 36.992 55.441 37.568 57.489 37.568C59.537 37.568 61.073 36.992 62.097 35.84C63.1637 34.6453 63.8677 33.1093 64.209 31.232C64.5503 29.312 64.721 26.9013 64.721 24ZM81.255 24C81.255 16.6613 82.663 10.88 85.479 6.656C88.3377 2.432 92.9243 0.319996 99.239 0.319996C105.554 0.319996 110.119 2.432 112.935 6.656C115.794 10.88 117.223 16.6613 117.223 24C117.223 31.424 115.794 37.248 112.935 41.472C110.119 45.696 105.554 47.808 99.239 47.808C92.9243 47.808 88.3377 45.696 85.479 41.472C82.663 37.248 81.255 31.424 81.255 24ZM106.471 24C106.471 19.6907 106.002 16.384 105.063 14.08C104.124 11.7333 102.183 10.56 99.239 10.56C96.295 10.56 94.3537 11.7333 93.415 14.08C92.4763 16.384 92.007 19.6907 92.007 24C92.007 26.9013 92.1777 29.312 92.519 31.232C92.8603 33.1093 93.543 34.6453 94.567 35.84C95.6337 36.992 97.191 37.568 99.239 37.568C101.287 37.568 102.823 36.992 103.847 35.84C104.914 34.6453 105.618 33.1093 105.959 31.232C106.3 29.312 106.471 26.9013 106.471 24ZM156.541 30.528H145.405V41.92H135.037V30.528H123.901V20.736H135.037V9.28H145.405V20.736H156.541V30.528Z" fill="white"/>
</svg>
