<svg width="111" height="49" viewBox="0 0 111 49" fill="none" xmlns="http://www.w3.org/2000/svg">
<path d="M31.704 9.472L15.64 48H4.44L20.696 10.688H0.792V1.344H31.704V9.472ZM59.234 13.888C58.8927 12.3093 58.2953 11.136 57.442 10.368C56.5887 9.55733 55.3727 9.152 53.794 9.152C51.362 9.152 49.6127 10.2187 48.546 12.352C47.4793 14.4427 46.9247 17.7707 46.882 22.336C47.8207 20.8427 49.1647 19.6693 50.914 18.816C52.706 17.9627 54.6687 17.536 56.802 17.536C60.9833 17.536 64.3327 18.8587 66.85 21.504C69.41 24.1493 70.69 27.84 70.69 32.576C70.69 35.6907 70.05 38.4213 68.77 40.768C67.5327 43.1147 65.698 44.9493 63.266 46.272C60.8767 47.5947 58.0393 48.256 54.754 48.256C48.1833 48.256 43.618 46.208 41.058 42.112C38.498 37.9733 37.218 32.0427 37.218 24.32C37.218 16.2133 38.562 10.1973 41.25 6.272C43.9807 2.304 48.3327 0.319996 54.306 0.319996C57.506 0.319996 60.194 0.959997 62.37 2.24C64.5887 3.47733 66.2527 5.12 67.362 7.168C68.514 9.216 69.1967 11.456 69.41 13.888H59.234ZM54.178 26.176C52.3433 26.176 50.8073 26.7307 49.57 27.84C48.3753 28.9067 47.778 30.4427 47.778 32.448C47.778 34.496 48.3327 36.096 49.442 37.248C50.594 38.4 52.2153 38.976 54.306 38.976C56.1833 38.976 57.6553 38.4213 58.722 37.312C59.8313 36.16 60.386 34.6027 60.386 32.64C60.386 30.6347 59.8527 29.056 58.786 27.904C57.7193 26.752 56.1833 26.176 54.178 26.176ZM110.416 30.528H99.28V41.92H88.912V30.528H77.776V20.736H88.912V9.28H99.28V20.736H110.416V30.528Z" fill="white"/>
</svg>
