<svg width="300" height="75" viewBox="0 0 300 75" fill="none" xmlns="http://www.w3.org/2000/svg">
<path fill-rule="evenodd" clip-rule="evenodd" d="M38.5 70C55.3447 70 69 56.3447 69 39.5C69 33.6885 67.3746 28.2566 64.5536 23.6341L64.5 23.5L64.4851 23.5223C59.1158 14.8087 49.4863 9 38.5 9C21.6553 9 8 22.6553 8 39.5C8 56.3447 21.6553 70 38.5 70ZM64.4851 23.5223L63.5 25C59.8333 28.8333 49.8 36.7 39 37.5C46 38 56 37 65.5 29.5C65.822 29.339 65.9658 29.2266 66.0227 29.1498C66.393 28.8209 66.5 28.5 66.5 28.5L64.5536 23.6341C64.5309 23.5968 64.508 23.5595 64.4851 23.5223Z" fill="white"/>
<path d="M101.156 17.104C102.212 17.104 103.316 17.2 104.468 17.392C105.62 17.56 106.52 17.788 107.168 18.076C107.384 18.148 107.516 18.244 107.564 18.364C107.636 18.46 107.696 18.64 107.744 18.904L108.176 23.908C108.176 23.98 108.116 24.028 107.996 24.052C107.876 24.076 107.804 24.04 107.78 23.944C106.964 22.048 105.872 20.584 104.504 19.552C103.136 18.52 101.552 18.004 99.752 18.004C97.376 18.004 95.54 18.88 94.244 20.632C92.948 22.384 92.3 24.736 92.3 27.688C92.3 29.896 92.648 31.912 93.344 33.736C94.064 35.56 95.06 37.012 96.332 38.092C97.628 39.148 99.092 39.676 100.724 39.676C102.26 39.676 103.628 39.172 104.828 38.164C106.052 37.132 107.144 35.572 108.104 33.484C108.128 33.388 108.2 33.352 108.32 33.376C108.464 33.4 108.536 33.448 108.536 33.52L107.996 38.416C107.948 38.704 107.888 38.896 107.816 38.992C107.768 39.064 107.636 39.148 107.42 39.244C105.284 40.036 103.088 40.432 100.832 40.432C97.904 40.432 95.456 39.856 93.488 38.704C91.52 37.528 90.068 36.052 89.132 34.276C88.22 32.476 87.764 30.604 87.764 28.66C87.764 26.38 88.376 24.364 89.6 22.612C90.848 20.86 92.492 19.504 94.532 18.544C96.596 17.584 98.804 17.104 101.156 17.104ZM127.758 39.568C127.854 39.568 127.902 39.64 127.902 39.784C127.902 39.928 127.854 40 127.758 40C127.134 40 126.63 39.988 126.246 39.964L124.158 39.928L121.998 39.964C121.638 39.988 121.146 40 120.522 40C120.474 40 120.45 39.928 120.45 39.784C120.45 39.64 120.474 39.568 120.522 39.568C121.266 39.568 121.77 39.4 122.034 39.064C122.322 38.704 122.466 38.044 122.466 37.084V31.9C122.466 30.604 122.226 29.644 121.746 29.02C121.266 28.396 120.522 28.084 119.514 28.084C118.938 28.084 118.338 28.204 117.714 28.444C117.114 28.684 116.586 29.008 116.13 29.416V37.084C116.13 38.044 116.262 38.704 116.526 39.064C116.814 39.4 117.33 39.568 118.074 39.568C118.17 39.568 118.218 39.64 118.218 39.784C118.218 39.928 118.17 40 118.074 40C117.45 40 116.946 39.988 116.562 39.964L114.474 39.928L112.314 39.964C111.954 39.988 111.462 40 110.838 40C110.79 40 110.766 39.928 110.766 39.784C110.766 39.64 110.79 39.568 110.838 39.568C111.582 39.568 112.086 39.4 112.35 39.064C112.638 38.704 112.782 38.044 112.782 37.084V18.796C112.782 17.956 112.698 17.356 112.53 16.996C112.386 16.636 112.122 16.456 111.738 16.456C111.402 16.456 110.946 16.588 110.37 16.852H110.334C110.262 16.852 110.19 16.792 110.118 16.672C110.07 16.528 110.07 16.444 110.118 16.42L115.374 13.936L115.554 13.9C115.674 13.9 115.794 13.96 115.914 14.08C116.058 14.176 116.13 14.272 116.13 14.368V28.624C117.834 26.656 119.658 25.672 121.602 25.672C122.898 25.672 123.918 26.092 124.662 26.932C125.43 27.748 125.814 28.828 125.814 30.172V37.084C125.814 38.044 125.946 38.704 126.21 39.064C126.498 39.4 127.014 39.568 127.758 39.568ZM143.482 38.056C143.578 38.056 143.638 38.116 143.662 38.236C143.71 38.332 143.686 38.404 143.59 38.452L139.882 40.216C139.786 40.264 139.666 40.288 139.522 40.288C139.162 40.288 138.802 40.108 138.442 39.748C138.106 39.388 137.866 38.896 137.722 38.272L136.066 39.172C135.442 39.484 134.794 39.748 134.122 39.964C133.45 40.156 132.85 40.252 132.322 40.252C131.554 40.252 130.942 40.06 130.486 39.676C130.054 39.268 129.838 38.692 129.838 37.948C129.838 37.396 129.97 36.952 130.234 36.616C130.522 36.28 130.918 36.004 131.422 35.788C131.95 35.548 132.778 35.236 133.906 34.852L137.578 33.664V30.82C137.578 29.38 137.434 28.324 137.146 27.652C136.858 26.956 136.39 26.608 135.742 26.608C135.166 26.608 134.71 26.824 134.374 27.256C134.038 27.688 133.834 28.396 133.762 29.38C133.618 30.724 132.91 31.396 131.638 31.396C130.51 31.396 129.946 30.904 129.946 29.92C129.946 29.272 130.354 28.624 131.17 27.976C131.986 27.328 132.97 26.8 134.122 26.392C135.274 25.984 136.282 25.78 137.146 25.78C138.274 25.78 139.186 26.116 139.882 26.788C140.602 27.46 140.962 28.444 140.962 29.74V36.112C140.962 36.808 141.082 37.348 141.322 37.732C141.586 38.116 141.946 38.308 142.402 38.308C142.738 38.308 143.086 38.224 143.446 38.056H143.482ZM137.614 37.696C137.59 37.528 137.578 37.276 137.578 36.94V34.276L135.598 34.996C134.95 35.236 134.482 35.5 134.194 35.788C133.93 36.076 133.798 36.424 133.798 36.832C133.798 37.336 133.942 37.732 134.23 38.02C134.518 38.308 134.878 38.452 135.31 38.452C135.838 38.452 136.45 38.284 137.146 37.948L137.614 37.696ZM154.315 25.744C154.867 25.744 155.395 25.948 155.899 26.356C156.427 26.74 156.691 27.208 156.691 27.76C156.691 28.264 156.535 28.684 156.223 29.02C155.911 29.332 155.503 29.488 154.999 29.488C154.639 29.488 154.339 29.416 154.099 29.272C153.883 29.128 153.655 28.912 153.415 28.624C153.199 28.384 153.007 28.216 152.839 28.12C152.695 28 152.515 27.94 152.299 27.94C152.059 27.94 151.795 28.036 151.507 28.228C151.243 28.396 150.823 28.768 150.247 29.344V37.084C150.247 38.044 150.475 38.704 150.931 39.064C151.387 39.4 152.227 39.568 153.451 39.568C153.547 39.568 153.595 39.64 153.595 39.784C153.595 39.928 153.547 40 153.451 40C152.611 40 151.951 39.988 151.471 39.964L148.555 39.928L146.431 39.964C146.071 39.988 145.579 40 144.955 40C144.883 40 144.847 39.928 144.847 39.784C144.847 39.64 144.883 39.568 144.955 39.568C145.699 39.568 146.203 39.4 146.467 39.064C146.731 38.704 146.863 38.044 146.863 37.084V30.316C146.863 29.572 146.767 29.032 146.575 28.696C146.407 28.336 146.131 28.156 145.747 28.156C145.339 28.156 144.763 28.324 144.019 28.66H143.947C143.875 28.66 143.815 28.6 143.767 28.48C143.743 28.36 143.755 28.288 143.803 28.264L148.807 25.816C148.951 25.768 149.035 25.744 149.059 25.744C149.323 25.744 149.563 25.996 149.779 26.5C150.019 26.98 150.163 27.64 150.211 28.48C151.195 27.472 151.999 26.764 152.623 26.356C153.271 25.948 153.835 25.744 154.315 25.744ZM158.595 40C158.523 40 158.487 39.928 158.487 39.784C158.487 39.64 158.523 39.568 158.595 39.568C159.339 39.568 159.843 39.4 160.107 39.064C160.371 38.704 160.503 38.044 160.503 37.084V30.64C160.503 29.824 160.419 29.236 160.251 28.876C160.083 28.516 159.807 28.336 159.423 28.336C159.111 28.336 158.667 28.468 158.091 28.732H158.055C157.959 28.732 157.887 28.672 157.839 28.552C157.791 28.408 157.803 28.324 157.875 28.3L163.311 25.78L163.419 25.744C163.539 25.744 163.659 25.804 163.779 25.924C163.899 26.044 163.959 26.152 163.959 26.248V27.04C163.911 28 163.887 29.176 163.887 30.568V37.084C163.887 38.044 164.019 38.704 164.283 39.064C164.571 39.4 165.087 39.568 165.831 39.568C165.903 39.568 165.939 39.64 165.939 39.784C165.939 39.928 165.903 40 165.831 40C165.207 40 164.715 39.988 164.355 39.964L162.195 39.928L160.071 39.964C159.711 39.988 159.219 40 158.595 40ZM162.051 22.18C161.355 22.18 160.815 21.988 160.431 21.604C160.047 21.22 159.855 20.68 159.855 19.984C159.855 19.36 160.047 18.868 160.431 18.508C160.839 18.124 161.379 17.932 162.051 17.932C162.723 17.932 163.239 18.112 163.599 18.472C163.959 18.832 164.139 19.336 164.139 19.984C164.139 20.68 163.959 21.22 163.599 21.604C163.239 21.988 162.723 22.18 162.051 22.18ZM170.896 27.832C170.896 28.528 171.136 29.128 171.616 29.632C172.12 30.136 172.84 30.664 173.776 31.216C174.688 31.744 175.36 32.164 175.792 32.476C176.248 32.764 176.656 33.184 177.016 33.736C177.376 34.264 177.556 34.912 177.556 35.68C177.556 36.496 177.352 37.264 176.944 37.984C176.536 38.704 175.924 39.292 175.108 39.748C174.292 40.18 173.32 40.396 172.192 40.396C170.872 40.396 169.624 40.072 168.448 39.424C168.304 39.28 168.232 39.136 168.232 38.992L168.16 35.428C168.16 35.356 168.22 35.32 168.34 35.32C168.484 35.296 168.568 35.308 168.592 35.356C168.976 36.556 169.612 37.576 170.5 38.416C171.388 39.256 172.288 39.676 173.2 39.676C173.704 39.676 174.1 39.52 174.388 39.208C174.7 38.896 174.856 38.44 174.856 37.84C174.856 36.952 174.604 36.256 174.1 35.752C173.596 35.224 172.852 34.684 171.868 34.132C171.028 33.676 170.392 33.304 169.96 33.016C169.528 32.728 169.144 32.32 168.808 31.792C168.472 31.264 168.304 30.616 168.304 29.848C168.304 28.432 168.808 27.4 169.816 26.752C170.824 26.08 172.06 25.744 173.524 25.744C174.076 25.744 174.568 25.78 175 25.852C175.456 25.924 175.96 26.068 176.512 26.284C176.728 26.356 176.836 26.488 176.836 26.68C176.836 27.28 176.824 27.748 176.8 28.084L176.764 29.884C176.764 29.956 176.692 29.992 176.548 29.992C176.404 29.992 176.332 29.956 176.332 29.884C176.332 29.428 176.14 28.936 175.756 28.408C175.372 27.856 174.868 27.388 174.244 27.004C173.644 26.62 173.02 26.428 172.372 26.428C171.388 26.428 170.896 26.896 170.896 27.832ZM202.371 17.104C203.427 17.104 204.531 17.2 205.683 17.392C206.835 17.56 207.735 17.788 208.383 18.076C208.599 18.148 208.731 18.244 208.779 18.364C208.851 18.46 208.911 18.64 208.959 18.904L209.391 23.908C209.391 23.98 209.331 24.028 209.211 24.052C209.091 24.076 209.019 24.04 208.995 23.944C208.179 22.048 207.087 20.584 205.719 19.552C204.351 18.52 202.767 18.004 200.967 18.004C198.591 18.004 196.755 18.88 195.459 20.632C194.163 22.384 193.515 24.736 193.515 27.688C193.515 29.896 193.863 31.912 194.559 33.736C195.279 35.56 196.275 37.012 197.547 38.092C198.843 39.148 200.307 39.676 201.939 39.676C203.475 39.676 204.843 39.172 206.043 38.164C207.267 37.132 208.359 35.572 209.319 33.484C209.343 33.388 209.415 33.352 209.535 33.376C209.679 33.4 209.751 33.448 209.751 33.52L209.211 38.416C209.163 38.704 209.103 38.896 209.031 38.992C208.983 39.064 208.851 39.148 208.635 39.244C206.499 40.036 204.303 40.432 202.047 40.432C199.119 40.432 196.671 39.856 194.703 38.704C192.735 37.528 191.283 36.052 190.347 34.276C189.435 32.476 188.979 30.604 188.979 28.66C188.979 26.38 189.591 24.364 190.815 22.612C192.063 20.86 193.707 19.504 195.747 18.544C197.811 17.584 200.019 17.104 202.371 17.104ZM219.829 40.468C218.341 40.468 217.033 40.132 215.905 39.46C214.801 38.764 213.949 37.84 213.349 36.688C212.749 35.512 212.449 34.24 212.449 32.872C212.449 31.312 212.845 29.992 213.637 28.912C214.429 27.808 215.437 26.992 216.661 26.464C217.885 25.912 219.145 25.636 220.441 25.636C221.929 25.636 223.225 25.984 224.329 26.68C225.433 27.376 226.273 28.3 226.849 29.452C227.449 30.58 227.749 31.792 227.749 33.088C227.749 34.528 227.389 35.812 226.669 36.94C225.949 38.044 224.977 38.908 223.753 39.532C222.553 40.156 221.245 40.468 219.829 40.468ZM220.909 39.712C221.845 39.712 222.553 39.256 223.033 38.344C223.537 37.408 223.789 36.076 223.789 34.348C223.789 32.668 223.573 31.228 223.141 30.028C222.709 28.828 222.145 27.928 221.449 27.328C220.753 26.704 220.009 26.392 219.217 26.392C217.297 26.392 216.337 28.108 216.337 31.54C216.337 33.148 216.541 34.576 216.949 35.824C217.357 37.048 217.909 38.008 218.605 38.704C219.301 39.376 220.069 39.712 220.909 39.712ZM247.234 39.568C247.306 39.568 247.342 39.64 247.342 39.784C247.342 39.928 247.306 40 247.234 40C246.61 40 246.118 39.988 245.758 39.964L243.598 39.928L241.51 39.964C241.126 39.988 240.622 40 239.998 40C239.926 40 239.89 39.928 239.89 39.784C239.89 39.64 239.926 39.568 239.998 39.568C240.742 39.568 241.246 39.4 241.51 39.064C241.774 38.704 241.906 38.044 241.906 37.084V31.9C241.906 30.604 241.666 29.644 241.186 29.02C240.73 28.396 239.998 28.084 238.99 28.084C238.414 28.084 237.814 28.204 237.19 28.444C236.59 28.684 236.062 29.008 235.606 29.416V37.084C235.606 38.044 235.738 38.704 236.002 39.064C236.29 39.4 236.806 39.568 237.55 39.568C237.622 39.568 237.658 39.64 237.658 39.784C237.658 39.928 237.622 40 237.55 40C236.926 40 236.434 39.988 236.074 39.964L233.914 39.928L231.79 39.964C231.43 39.988 230.938 40 230.314 40C230.242 40 230.206 39.928 230.206 39.784C230.206 39.64 230.242 39.568 230.314 39.568C231.058 39.568 231.562 39.4 231.826 39.064C232.09 38.704 232.222 38.044 232.222 37.084V30.316C232.222 29.572 232.126 29.032 231.934 28.696C231.766 28.336 231.49 28.156 231.106 28.156C230.698 28.156 230.122 28.324 229.378 28.66H229.306C229.234 28.66 229.174 28.6 229.126 28.48C229.102 28.36 229.114 28.288 229.162 28.264L234.166 25.816C234.31 25.768 234.394 25.744 234.418 25.744C234.682 25.744 234.934 26.008 235.174 26.536C235.414 27.04 235.558 27.736 235.606 28.624C237.262 26.656 239.086 25.672 241.078 25.672C242.374 25.672 243.394 26.092 244.138 26.932C244.906 27.748 245.29 28.828 245.29 30.172V37.084C245.29 38.044 245.422 38.704 245.686 39.064C245.974 39.4 246.49 39.568 247.234 39.568ZM252.107 27.832C252.107 28.528 252.347 29.128 252.827 29.632C253.331 30.136 254.051 30.664 254.987 31.216C255.899 31.744 256.571 32.164 257.003 32.476C257.459 32.764 257.867 33.184 258.227 33.736C258.587 34.264 258.767 34.912 258.767 35.68C258.767 36.496 258.563 37.264 258.155 37.984C257.747 38.704 257.135 39.292 256.319 39.748C255.503 40.18 254.531 40.396 253.403 40.396C252.083 40.396 250.835 40.072 249.659 39.424C249.515 39.28 249.443 39.136 249.443 38.992L249.371 35.428C249.371 35.356 249.431 35.32 249.551 35.32C249.695 35.296 249.779 35.308 249.803 35.356C250.187 36.556 250.823 37.576 251.711 38.416C252.599 39.256 253.499 39.676 254.411 39.676C254.915 39.676 255.311 39.52 255.599 39.208C255.911 38.896 256.067 38.44 256.067 37.84C256.067 36.952 255.815 36.256 255.311 35.752C254.807 35.224 254.063 34.684 253.079 34.132C252.239 33.676 251.603 33.304 251.171 33.016C250.739 32.728 250.355 32.32 250.019 31.792C249.683 31.264 249.515 30.616 249.515 29.848C249.515 28.432 250.019 27.4 251.027 26.752C252.035 26.08 253.271 25.744 254.735 25.744C255.287 25.744 255.779 25.78 256.211 25.852C256.667 25.924 257.171 26.068 257.723 26.284C257.939 26.356 258.047 26.488 258.047 26.68C258.047 27.28 258.035 27.748 258.011 28.084L257.975 29.884C257.975 29.956 257.903 29.992 257.759 29.992C257.615 29.992 257.543 29.956 257.543 29.884C257.543 29.428 257.351 28.936 256.967 28.408C256.583 27.856 256.079 27.388 255.455 27.004C254.855 26.62 254.231 26.428 253.583 26.428C252.599 26.428 252.107 26.896 252.107 27.832ZM277.952 37.66C278.024 37.66 278.084 37.72 278.132 37.84C278.204 37.96 278.204 38.032 278.132 38.056L273.164 40.468C273.116 40.492 273.056 40.504 272.984 40.504C272.744 40.504 272.528 40.252 272.336 39.748C272.168 39.22 272.072 38.512 272.048 37.624C270.464 39.496 268.748 40.432 266.9 40.432C265.58 40.432 264.536 40.024 263.768 39.208C263.024 38.368 262.652 37.276 262.652 35.932V30.64C262.652 29.08 262.28 28.3 261.536 28.3C261.272 28.3 260.972 28.384 260.636 28.552H260.6C260.504 28.552 260.432 28.492 260.384 28.372C260.336 28.228 260.348 28.144 260.42 28.12L265.244 25.816L265.424 25.78C265.544 25.78 265.664 25.84 265.784 25.96C265.928 26.056 266 26.152 266 26.248V34.204C266 36.796 266.996 38.092 268.988 38.092C269.516 38.092 270.044 37.984 270.572 37.768C271.124 37.528 271.616 37.204 272.048 36.796V30.64C272.048 29.08 271.676 28.3 270.932 28.3C270.668 28.3 270.356 28.384 269.996 28.552H269.96C269.888 28.552 269.828 28.492 269.78 28.372C269.732 28.228 269.744 28.144 269.816 28.12L274.64 25.816C274.688 25.792 274.748 25.78 274.82 25.78C274.94 25.78 275.06 25.84 275.18 25.96C275.324 26.056 275.396 26.152 275.396 26.248V35.824C275.396 36.64 275.468 37.216 275.612 37.552C275.78 37.888 276.044 38.056 276.404 38.056C276.74 38.056 277.232 37.924 277.88 37.66H277.952ZM279.424 40C279.376 40 279.352 39.928 279.352 39.784C279.352 39.64 279.376 39.568 279.424 39.568C280.168 39.568 280.672 39.4 280.936 39.064C281.224 38.704 281.368 38.044 281.368 37.084L281.404 18.796C281.404 17.956 281.32 17.356 281.152 16.996C281.008 16.636 280.744 16.456 280.36 16.456C280.048 16.456 279.592 16.588 278.992 16.852H278.956C278.884 16.852 278.812 16.792 278.74 16.672C278.692 16.528 278.692 16.444 278.74 16.42L284.032 13.936L284.176 13.9C284.296 13.9 284.428 13.96 284.572 14.08C284.716 14.176 284.788 14.272 284.788 14.368V37.084C284.788 38.044 284.92 38.704 285.184 39.064C285.448 39.4 285.952 39.568 286.696 39.568C286.792 39.568 286.84 39.64 286.84 39.784C286.84 39.928 286.792 40 286.696 40C286.096 40 285.616 39.988 285.256 39.964L283.06 39.928L280.9 39.964C280.54 39.988 280.048 40 279.424 40ZM299.461 37.48C299.557 37.48 299.629 37.528 299.677 37.624C299.749 37.72 299.749 37.792 299.677 37.84C298.789 38.728 297.925 39.388 297.085 39.82C296.245 40.228 295.357 40.432 294.421 40.432C293.365 40.432 292.465 40.18 291.721 39.676C290.977 39.172 290.605 38.32 290.605 37.12V29.128C290.605 28.384 290.473 27.868 290.209 27.58C289.945 27.292 289.465 27.148 288.769 27.148C288.745 27.148 288.709 27.112 288.661 27.04C288.637 26.968 288.625 26.896 288.625 26.824C288.625 26.728 288.637 26.656 288.661 26.608C288.685 26.536 288.721 26.5 288.769 26.5C289.993 26.452 290.977 26.188 291.721 25.708C292.489 25.228 293.077 24.496 293.485 23.512C293.533 23.416 293.629 23.368 293.773 23.368C293.941 23.368 294.025 23.416 294.025 23.512V26.392C295.417 26.368 296.977 26.26 298.705 26.068C298.753 26.068 298.801 26.164 298.849 26.356C298.921 26.524 298.957 26.716 298.957 26.932C298.957 27.172 298.909 27.412 298.813 27.652C298.741 27.868 298.657 27.964 298.561 27.94C297.001 27.604 295.489 27.424 294.025 27.4V35.932C294.025 36.844 294.253 37.516 294.709 37.948C295.189 38.38 295.813 38.596 296.581 38.596C297.541 38.596 298.477 38.236 299.389 37.516L299.461 37.48Z" fill="white"/>
<path d="M99.378 62.065C99.1873 62.065 99.0227 61.9957 98.884 61.857C98.754 61.7183 98.689 61.5493 98.689 61.35C98.689 61.1507 98.754 60.986 98.884 60.856C99.0227 60.7173 99.1873 60.648 99.378 60.648C99.5687 60.648 99.7333 60.7173 99.872 60.856C100.011 60.986 100.08 61.1507 100.08 61.35C100.08 61.5493 100.011 61.7183 99.872 61.857C99.7333 61.9957 99.5687 62.065 99.378 62.065ZM102.133 62.065C101.942 62.065 101.778 61.9957 101.639 61.857C101.509 61.7183 101.444 61.5493 101.444 61.35C101.444 61.1507 101.509 60.986 101.639 60.856C101.778 60.7173 101.942 60.648 102.133 60.648C102.324 60.648 102.488 60.7173 102.627 60.856C102.766 60.986 102.835 61.1507 102.835 61.35C102.835 61.5493 102.766 61.7183 102.627 61.857C102.488 61.9957 102.324 62.065 102.133 62.065ZM104.888 62.065C104.697 62.065 104.532 61.9957 104.394 61.857C104.264 61.7183 104.199 61.5493 104.199 61.35C104.199 61.1507 104.264 60.986 104.394 60.856C104.532 60.7173 104.697 60.648 104.888 60.648C105.078 60.648 105.243 60.7173 105.382 60.856C105.52 60.986 105.59 61.1507 105.59 61.35C105.59 61.5493 105.52 61.7183 105.382 61.857C105.243 61.9957 105.078 62.065 104.888 62.065ZM110.195 62.065C109.519 62.065 108.913 61.9177 108.375 61.623C107.847 61.3283 107.431 60.9167 107.127 60.388C106.824 59.8507 106.672 59.2483 106.672 58.581C106.672 57.9137 106.824 57.3157 107.127 56.787C107.431 56.2583 107.847 55.8467 108.375 55.552C108.913 55.2573 109.519 55.11 110.195 55.11C110.785 55.11 111.309 55.227 111.768 55.461C112.236 55.6863 112.605 56.02 112.873 56.462L112.184 56.93C111.959 56.592 111.673 56.3407 111.326 56.176C110.98 56.0027 110.603 55.916 110.195 55.916C109.701 55.916 109.255 56.0287 108.856 56.254C108.466 56.4707 108.159 56.7827 107.933 57.19C107.717 57.5973 107.608 58.061 107.608 58.581C107.608 59.1097 107.717 59.5777 107.933 59.985C108.159 60.3837 108.466 60.6957 108.856 60.921C109.255 61.1377 109.701 61.246 110.195 61.246C110.603 61.246 110.98 61.1637 111.326 60.999C111.673 60.8343 111.959 60.583 112.184 60.245L112.873 60.713C112.605 61.155 112.236 61.493 111.768 61.727C111.3 61.9523 110.776 62.065 110.195 62.065ZM115.57 56.501C115.787 56.0417 116.108 55.695 116.532 55.461C116.966 55.227 117.499 55.11 118.131 55.11V56.007L117.91 55.994C117.191 55.994 116.628 56.215 116.22 56.657C115.813 57.099 115.609 57.7187 115.609 58.516V62H114.686V55.162H115.57V56.501ZM125.693 58.867H119.973C120.025 59.5777 120.298 60.154 120.792 60.596C121.286 61.0293 121.91 61.246 122.664 61.246C123.089 61.246 123.479 61.1723 123.834 61.025C124.189 60.869 124.497 60.6437 124.757 60.349L125.277 60.947C124.974 61.311 124.592 61.5883 124.133 61.779C123.682 61.9697 123.184 62.065 122.638 62.065C121.936 62.065 121.312 61.9177 120.766 61.623C120.229 61.3197 119.808 60.9037 119.505 60.375C119.202 59.8463 119.05 59.2483 119.05 58.581C119.05 57.9137 119.193 57.3157 119.479 56.787C119.774 56.2583 120.172 55.8467 120.675 55.552C121.186 55.2573 121.758 55.11 122.391 55.11C123.024 55.11 123.591 55.2573 124.094 55.552C124.597 55.8467 124.991 56.2583 125.277 56.787C125.563 57.307 125.706 57.905 125.706 58.581L125.693 58.867ZM122.391 55.903C121.732 55.903 121.178 56.1153 120.727 56.54C120.285 56.956 120.034 57.502 119.973 58.178H124.822C124.761 57.502 124.506 56.956 124.055 56.54C123.613 56.1153 123.058 55.903 122.391 55.903ZM129.786 55.11C130.679 55.11 131.364 55.3353 131.84 55.786C132.317 56.228 132.555 56.8867 132.555 57.762V62H131.671V60.934C131.463 61.2893 131.156 61.5667 130.748 61.766C130.35 61.9653 129.873 62.065 129.318 62.065C128.556 62.065 127.949 61.883 127.498 61.519C127.048 61.155 126.822 60.674 126.822 60.076C126.822 59.4953 127.03 59.0273 127.446 58.672C127.871 58.3167 128.543 58.139 129.461 58.139H131.632V57.723C131.632 57.1337 131.468 56.6873 131.138 56.384C130.809 56.072 130.328 55.916 129.695 55.916C129.262 55.916 128.846 55.9897 128.447 56.137C128.049 56.2757 127.706 56.4707 127.42 56.722L127.004 56.033C127.351 55.7383 127.767 55.513 128.252 55.357C128.738 55.1923 129.249 55.11 129.786 55.11ZM129.461 61.337C129.981 61.337 130.428 61.22 130.8 60.986C131.173 60.7433 131.45 60.3967 131.632 59.946V58.828H129.487C128.317 58.828 127.732 59.2353 127.732 60.05C127.732 60.4487 127.884 60.765 128.187 60.999C128.491 61.2243 128.915 61.337 129.461 61.337ZM138.663 61.584C138.49 61.74 138.273 61.8613 138.013 61.948C137.762 62.026 137.498 62.065 137.22 62.065C136.579 62.065 136.085 61.8917 135.738 61.545C135.392 61.1983 135.218 60.7087 135.218 60.076V55.942H133.996V55.162H135.218V53.667H136.141V55.162H138.221V55.942H136.141V60.024C136.141 60.4313 136.241 60.7433 136.44 60.96C136.648 61.168 136.943 61.272 137.324 61.272C137.515 61.272 137.697 61.2417 137.87 61.181C138.052 61.1203 138.208 61.0337 138.338 60.921L138.663 61.584ZM140.344 55.162H141.267V62H140.344V55.162ZM140.812 53.667C140.621 53.667 140.461 53.602 140.331 53.472C140.201 53.342 140.136 53.186 140.136 53.004C140.136 52.8307 140.201 52.679 140.331 52.549C140.461 52.419 140.621 52.354 140.812 52.354C141.002 52.354 141.163 52.419 141.293 52.549C141.423 52.6703 141.488 52.8177 141.488 52.991C141.488 53.1817 141.423 53.342 141.293 53.472C141.163 53.602 141.002 53.667 140.812 53.667ZM147.319 55.11C148.177 55.11 148.857 55.3613 149.36 55.864C149.871 56.358 150.127 57.0817 150.127 58.035V62H149.204V58.126C149.204 57.4153 149.026 56.8737 148.671 56.501C148.316 56.1283 147.809 55.942 147.15 55.942C146.413 55.942 145.828 56.163 145.395 56.605C144.97 57.0383 144.758 57.6407 144.758 58.412V62H143.835V55.162H144.719V56.423C144.97 56.007 145.317 55.6863 145.759 55.461C146.21 55.227 146.73 55.11 147.319 55.11ZM158.989 55.162V61.168C158.989 62.3293 158.703 63.1873 158.131 63.742C157.568 64.3053 156.714 64.587 155.57 64.587C154.937 64.587 154.335 64.4917 153.763 64.301C153.2 64.119 152.74 63.8633 152.385 63.534L152.853 62.832C153.182 63.1267 153.581 63.3563 154.049 63.521C154.526 63.6857 155.024 63.768 155.544 63.768C156.411 63.768 157.048 63.5643 157.455 63.157C157.862 62.7583 158.066 62.1343 158.066 61.285V60.414C157.78 60.8473 157.403 61.1767 156.935 61.402C156.476 61.6273 155.964 61.74 155.401 61.74C154.76 61.74 154.175 61.6013 153.646 61.324C153.126 61.038 152.714 60.6437 152.411 60.141C152.116 59.6297 151.969 59.0533 151.969 58.412C151.969 57.7707 152.116 57.1987 152.411 56.696C152.714 56.1933 153.126 55.8033 153.646 55.526C154.166 55.2487 154.751 55.11 155.401 55.11C155.982 55.11 156.506 55.227 156.974 55.461C157.442 55.695 157.819 56.033 158.105 56.475V55.162H158.989ZM155.492 60.921C155.986 60.921 156.432 60.817 156.831 60.609C157.23 60.3923 157.537 60.0933 157.754 59.712C157.979 59.3307 158.092 58.8973 158.092 58.412C158.092 57.9267 157.979 57.4977 157.754 57.125C157.537 56.7437 157.23 56.449 156.831 56.241C156.441 56.0243 155.995 55.916 155.492 55.916C154.998 55.916 154.552 56.02 154.153 56.228C153.763 56.436 153.455 56.7307 153.23 57.112C153.013 57.4933 152.905 57.9267 152.905 58.412C152.905 58.8973 153.013 59.3307 153.23 59.712C153.455 60.0933 153.763 60.3923 154.153 60.609C154.552 60.817 154.998 60.921 155.492 60.921ZM175.009 55.162L172.422 62H171.551L169.393 56.397L167.235 62H166.364L163.79 55.162H164.674L166.819 60.973L169.016 55.162H169.809L171.993 60.973L174.164 55.162H175.009ZM182.162 58.867H176.442C176.494 59.5777 176.767 60.154 177.261 60.596C177.755 61.0293 178.379 61.246 179.133 61.246C179.558 61.246 179.948 61.1723 180.303 61.025C180.658 60.869 180.966 60.6437 181.226 60.349L181.746 60.947C181.443 61.311 181.061 61.5883 180.602 61.779C180.151 61.9697 179.653 62.065 179.107 62.065C178.405 62.065 177.781 61.9177 177.235 61.623C176.698 61.3197 176.277 60.9037 175.974 60.375C175.671 59.8463 175.519 59.2483 175.519 58.581C175.519 57.9137 175.662 57.3157 175.948 56.787C176.243 56.2583 176.641 55.8467 177.144 55.552C177.655 55.2573 178.227 55.11 178.86 55.11C179.493 55.11 180.06 55.2573 180.563 55.552C181.066 55.8467 181.46 56.2583 181.746 56.787C182.032 57.307 182.175 57.905 182.175 58.581L182.162 58.867ZM178.86 55.903C178.201 55.903 177.647 56.1153 177.196 56.54C176.754 56.956 176.503 57.502 176.442 58.178H181.291C181.23 57.502 180.975 56.956 180.524 56.54C180.082 56.1153 179.527 55.903 178.86 55.903ZM186.255 55.11C187.148 55.11 187.833 55.3353 188.309 55.786C188.786 56.228 189.024 56.8867 189.024 57.762V62H188.14V60.934C187.932 61.2893 187.625 61.5667 187.217 61.766C186.819 61.9653 186.342 62.065 185.787 62.065C185.025 62.065 184.418 61.883 183.967 61.519C183.517 61.155 183.291 60.674 183.291 60.076C183.291 59.4953 183.499 59.0273 183.915 58.672C184.34 58.3167 185.012 58.139 185.93 58.139H188.101V57.723C188.101 57.1337 187.937 56.6873 187.607 56.384C187.278 56.072 186.797 55.916 186.164 55.916C185.731 55.916 185.315 55.9897 184.916 56.137C184.518 56.2757 184.175 56.4707 183.889 56.722L183.473 56.033C183.82 55.7383 184.236 55.513 184.721 55.357C185.207 55.1923 185.718 55.11 186.255 55.11ZM185.93 61.337C186.45 61.337 186.897 61.22 187.269 60.986C187.642 60.7433 187.919 60.3967 188.101 59.946V58.828H185.956C184.786 58.828 184.201 59.2353 184.201 60.05C184.201 60.4487 184.353 60.765 184.656 60.999C184.96 61.2243 185.384 61.337 185.93 61.337ZM191.531 52.354H192.454V62H191.531V52.354ZM198.649 61.584C198.475 61.74 198.259 61.8613 197.999 61.948C197.747 62.026 197.483 62.065 197.206 62.065C196.564 62.065 196.07 61.8917 195.724 61.545C195.377 61.1983 195.204 60.7087 195.204 60.076V55.942H193.982V55.162H195.204V53.667H196.127V55.162H198.207V55.942H196.127V60.024C196.127 60.4313 196.226 60.7433 196.426 60.96C196.634 61.168 196.928 61.272 197.31 61.272C197.5 61.272 197.682 61.2417 197.856 61.181C198.038 61.1203 198.194 61.0337 198.324 60.921L198.649 61.584ZM203.813 55.11C204.671 55.11 205.351 55.3613 205.854 55.864C206.365 56.358 206.621 57.0817 206.621 58.035V62H205.698V58.126C205.698 57.4153 205.52 56.8737 205.165 56.501C204.81 56.1283 204.303 55.942 203.644 55.942C202.907 55.942 202.322 56.163 201.889 56.605C201.464 57.0383 201.252 57.6407 201.252 58.412V62H200.329V52.354H201.252V56.358C201.503 55.9593 201.85 55.6517 202.292 55.435C202.734 55.2183 203.241 55.11 203.813 55.11ZM215.324 62.065C214.666 62.065 214.072 61.9177 213.543 61.623C213.015 61.3197 212.599 60.9037 212.295 60.375C211.992 59.8463 211.84 59.2483 211.84 58.581C211.84 57.9137 211.992 57.3157 212.295 56.787C212.599 56.2583 213.015 55.8467 213.543 55.552C214.072 55.2573 214.666 55.11 215.324 55.11C215.983 55.11 216.577 55.2573 217.105 55.552C217.634 55.8467 218.046 56.2583 218.34 56.787C218.644 57.3157 218.795 57.9137 218.795 58.581C218.795 59.2483 218.644 59.8463 218.34 60.375C218.046 60.9037 217.634 61.3197 217.105 61.623C216.577 61.9177 215.983 62.065 215.324 62.065ZM215.324 61.246C215.81 61.246 216.243 61.1377 216.624 60.921C217.014 60.6957 217.318 60.3793 217.534 59.972C217.751 59.5647 217.859 59.101 217.859 58.581C217.859 58.061 217.751 57.5973 217.534 57.19C217.318 56.7827 217.014 56.4707 216.624 56.254C216.243 56.0287 215.81 55.916 215.324 55.916C214.839 55.916 214.401 56.0287 214.011 56.254C213.63 56.4707 213.327 56.7827 213.101 57.19C212.885 57.5973 212.776 58.061 212.776 58.581C212.776 59.101 212.885 59.5647 213.101 59.972C213.327 60.3793 213.63 60.6957 214.011 60.921C214.401 61.1377 214.839 61.246 215.324 61.246ZM224.203 55.11C224.844 55.11 225.425 55.2573 225.945 55.552C226.465 55.838 226.872 56.2453 227.167 56.774C227.461 57.3027 227.609 57.905 227.609 58.581C227.609 59.2657 227.461 59.8723 227.167 60.401C226.872 60.9297 226.465 61.3413 225.945 61.636C225.433 61.922 224.853 62.065 224.203 62.065C223.648 62.065 223.145 61.9523 222.695 61.727C222.253 61.493 221.889 61.155 221.603 60.713V64.522H220.68V55.162H221.564V56.514C221.841 56.0633 222.205 55.7167 222.656 55.474C223.115 55.2313 223.631 55.11 224.203 55.11ZM224.138 61.246C224.614 61.246 225.048 61.1377 225.438 60.921C225.828 60.6957 226.131 60.3793 226.348 59.972C226.573 59.5647 226.686 59.101 226.686 58.581C226.686 58.061 226.573 57.6017 226.348 57.203C226.131 56.7957 225.828 56.4793 225.438 56.254C225.048 56.0287 224.614 55.916 224.138 55.916C223.652 55.916 223.215 56.0287 222.825 56.254C222.443 56.4793 222.14 56.7957 221.915 57.203C221.698 57.6017 221.59 58.061 221.59 58.581C221.59 59.101 221.698 59.5647 221.915 59.972C222.14 60.3793 222.443 60.6957 222.825 60.921C223.215 61.1377 223.652 61.246 224.138 61.246ZM233.013 55.11C233.654 55.11 234.235 55.2573 234.755 55.552C235.275 55.838 235.682 56.2453 235.977 56.774C236.272 57.3027 236.419 57.905 236.419 58.581C236.419 59.2657 236.272 59.8723 235.977 60.401C235.682 60.9297 235.275 61.3413 234.755 61.636C234.244 61.922 233.663 62.065 233.013 62.065C232.458 62.065 231.956 61.9523 231.505 61.727C231.063 61.493 230.699 61.155 230.413 60.713V64.522H229.49V55.162H230.374V56.514C230.651 56.0633 231.015 55.7167 231.466 55.474C231.925 55.2313 232.441 55.11 233.013 55.11ZM232.948 61.246C233.425 61.246 233.858 61.1377 234.248 60.921C234.638 60.6957 234.941 60.3793 235.158 59.972C235.383 59.5647 235.496 59.101 235.496 58.581C235.496 58.061 235.383 57.6017 235.158 57.203C234.941 56.7957 234.638 56.4793 234.248 56.254C233.858 56.0287 233.425 55.916 232.948 55.916C232.463 55.916 232.025 56.0287 231.635 56.254C231.254 56.4793 230.95 56.7957 230.725 57.203C230.508 57.6017 230.4 58.061 230.4 58.581C230.4 59.101 230.508 59.5647 230.725 59.972C230.95 60.3793 231.254 60.6957 231.635 60.921C232.025 61.1377 232.463 61.246 232.948 61.246ZM241.096 62.065C240.437 62.065 239.843 61.9177 239.315 61.623C238.786 61.3197 238.37 60.9037 238.067 60.375C237.763 59.8463 237.612 59.2483 237.612 58.581C237.612 57.9137 237.763 57.3157 238.067 56.787C238.37 56.2583 238.786 55.8467 239.315 55.552C239.843 55.2573 240.437 55.11 241.096 55.11C241.754 55.11 242.348 55.2573 242.877 55.552C243.405 55.8467 243.817 56.2583 244.112 56.787C244.415 57.3157 244.567 57.9137 244.567 58.581C244.567 59.2483 244.415 59.8463 244.112 60.375C243.817 60.9037 243.405 61.3197 242.877 61.623C242.348 61.9177 241.754 62.065 241.096 62.065ZM241.096 61.246C241.581 61.246 242.014 61.1377 242.396 60.921C242.786 60.6957 243.089 60.3793 243.306 59.972C243.522 59.5647 243.631 59.101 243.631 58.581C243.631 58.061 243.522 57.5973 243.306 57.19C243.089 56.7827 242.786 56.4707 242.396 56.254C242.014 56.0287 241.581 55.916 241.096 55.916C240.61 55.916 240.173 56.0287 239.783 56.254C239.401 56.4707 239.098 56.7827 238.873 57.19C238.656 57.5973 238.548 58.061 238.548 58.581C238.548 59.101 238.656 59.5647 238.873 59.972C239.098 60.3793 239.401 60.6957 239.783 60.921C240.173 61.1377 240.61 61.246 241.096 61.246ZM247.335 56.501C247.552 56.0417 247.872 55.695 248.297 55.461C248.73 55.227 249.263 55.11 249.896 55.11V56.007L249.675 55.994C248.956 55.994 248.392 56.215 247.985 56.657C247.578 57.099 247.374 57.7187 247.374 58.516V62H246.451V55.162H247.335V56.501ZM255.46 61.584C255.287 61.74 255.07 61.8613 254.81 61.948C254.559 62.026 254.295 62.065 254.017 62.065C253.376 62.065 252.882 61.8917 252.535 61.545C252.189 61.1983 252.015 60.7087 252.015 60.076V55.942H250.793V55.162H252.015V53.667H252.938V55.162H255.018V55.942H252.938V60.024C252.938 60.4313 253.038 60.7433 253.237 60.96C253.445 61.168 253.74 61.272 254.121 61.272C254.312 61.272 254.494 61.2417 254.667 61.181C254.849 61.1203 255.005 61.0337 255.135 60.921L255.46 61.584ZM263.303 55.162V62H262.419V60.752C262.176 61.168 261.842 61.493 261.418 61.727C260.993 61.9523 260.508 62.065 259.962 62.065C259.069 62.065 258.363 61.818 257.843 61.324C257.331 60.8213 257.076 60.089 257.076 59.127V55.162H257.999V59.036C257.999 59.7553 258.176 60.3013 258.532 60.674C258.887 61.0467 259.394 61.233 260.053 61.233C260.772 61.233 261.34 61.0163 261.756 60.583C262.172 60.141 262.38 59.53 262.38 58.75V55.162H263.303ZM269.372 55.11C270.23 55.11 270.91 55.3613 271.413 55.864C271.924 56.358 272.18 57.0817 272.18 58.035V62H271.257V58.126C271.257 57.4153 271.079 56.8737 270.724 56.501C270.368 56.1283 269.861 55.942 269.203 55.942C268.466 55.942 267.881 56.163 267.448 56.605C267.023 57.0383 266.811 57.6407 266.811 58.412V62H265.888V55.162H266.772V56.423C267.023 56.007 267.37 55.6863 267.812 55.461C268.262 55.227 268.782 55.11 269.372 55.11ZM274.685 55.162H275.608V62H274.685V55.162ZM275.153 53.667C274.963 53.667 274.802 53.602 274.672 53.472C274.542 53.342 274.477 53.186 274.477 53.004C274.477 52.8307 274.542 52.679 274.672 52.549C274.802 52.419 274.963 52.354 275.153 52.354C275.344 52.354 275.504 52.419 275.634 52.549C275.764 52.6703 275.829 52.8177 275.829 52.991C275.829 53.1817 275.764 53.342 275.634 53.472C275.504 53.602 275.344 53.667 275.153 53.667ZM281.778 61.584C281.604 61.74 281.388 61.8613 281.128 61.948C280.876 62.026 280.612 62.065 280.335 62.065C279.693 62.065 279.199 61.8917 278.853 61.545C278.506 61.1983 278.333 60.7087 278.333 60.076V55.942H277.111V55.162H278.333V53.667H279.256V55.162H281.336V55.942H279.256V60.024C279.256 60.4313 279.355 60.7433 279.555 60.96C279.763 61.168 280.057 61.272 280.439 61.272C280.629 61.272 280.811 61.2417 280.985 61.181C281.167 61.1203 281.323 61.0337 281.453 60.921L281.778 61.584ZM283.458 55.162H284.381V62H283.458V55.162ZM283.926 53.667C283.735 53.667 283.575 53.602 283.445 53.472C283.315 53.342 283.25 53.186 283.25 53.004C283.25 52.8307 283.315 52.679 283.445 52.549C283.575 52.419 283.735 52.354 283.926 52.354C284.117 52.354 284.277 52.419 284.407 52.549C284.537 52.6703 284.602 52.8177 284.602 52.991C284.602 53.1817 284.537 53.342 284.407 53.472C284.277 53.602 284.117 53.667 283.926 53.667ZM292.903 58.867H287.183C287.235 59.5777 287.508 60.154 288.002 60.596C288.496 61.0293 289.12 61.246 289.874 61.246C290.299 61.246 290.689 61.1723 291.044 61.025C291.399 60.869 291.707 60.6437 291.967 60.349L292.487 60.947C292.184 61.311 291.802 61.5883 291.343 61.779C290.892 61.9697 290.394 62.065 289.848 62.065C289.146 62.065 288.522 61.9177 287.976 61.623C287.439 61.3197 287.018 60.9037 286.715 60.375C286.412 59.8463 286.26 59.2483 286.26 58.581C286.26 57.9137 286.403 57.3157 286.689 56.787C286.984 56.2583 287.382 55.8467 287.885 55.552C288.396 55.2573 288.968 55.11 289.601 55.11C290.234 55.11 290.801 55.2573 291.304 55.552C291.807 55.8467 292.201 56.2583 292.487 56.787C292.773 57.307 292.916 57.905 292.916 58.581L292.903 58.867ZM289.601 55.903C288.942 55.903 288.388 56.1153 287.937 56.54C287.495 56.956 287.244 57.502 287.183 58.178H292.032C291.971 57.502 291.716 56.956 291.265 56.54C290.823 56.1153 290.268 55.903 289.601 55.903ZM296.628 62.065C296.073 62.065 295.54 61.987 295.029 61.831C294.526 61.6663 294.132 61.4627 293.846 61.22L294.262 60.492C294.548 60.7173 294.907 60.9037 295.341 61.051C295.774 61.1897 296.225 61.259 296.693 61.259C297.317 61.259 297.776 61.1637 298.071 60.973C298.374 60.7737 298.526 60.4963 298.526 60.141C298.526 59.8897 298.443 59.6947 298.279 59.556C298.114 59.4087 297.906 59.3003 297.655 59.231C297.403 59.153 297.07 59.0793 296.654 59.01C296.099 58.906 295.653 58.802 295.315 58.698C294.977 58.5853 294.686 58.399 294.444 58.139C294.21 57.879 294.093 57.5193 294.093 57.06C294.093 56.488 294.331 56.02 294.808 55.656C295.284 55.292 295.947 55.11 296.797 55.11C297.239 55.11 297.681 55.1707 298.123 55.292C298.565 55.4047 298.929 55.5563 299.215 55.747L298.812 56.488C298.248 56.098 297.577 55.903 296.797 55.903C296.207 55.903 295.761 56.007 295.458 56.215C295.163 56.423 295.016 56.696 295.016 57.034C295.016 57.294 295.098 57.502 295.263 57.658C295.436 57.814 295.648 57.931 295.9 58.009C296.151 58.0783 296.498 58.152 296.94 58.23C297.486 58.334 297.923 58.438 298.253 58.542C298.582 58.646 298.864 58.8237 299.098 59.075C299.332 59.3263 299.449 59.673 299.449 60.115C299.449 60.713 299.197 61.1897 298.695 61.545C298.201 61.8917 297.512 62.065 296.628 62.065Z" fill="white"/>
</svg>
