<svg width="309" height="77" viewBox="0 0 309 77" fill="none" xmlns="http://www.w3.org/2000/svg">
<path d="M110.156 24.104C111.212 24.104 112.316 24.2 113.468 24.392C114.62 24.56 115.52 24.788 116.168 25.076C116.384 25.148 116.516 25.244 116.564 25.364C116.636 25.46 116.696 25.64 116.744 25.904L117.176 30.908C117.176 30.98 117.116 31.028 116.996 31.052C116.876 31.076 116.804 31.04 116.78 30.944C115.964 29.048 114.872 27.584 113.504 26.552C112.136 25.52 110.552 25.004 108.752 25.004C106.376 25.004 104.54 25.88 103.244 27.632C101.948 29.384 101.3 31.736 101.3 34.688C101.3 36.896 101.648 38.912 102.344 40.736C103.064 42.56 104.06 44.012 105.332 45.092C106.628 46.148 108.092 46.676 109.724 46.676C111.26 46.676 112.628 46.172 113.828 45.164C115.052 44.132 116.144 42.572 117.104 40.484C117.128 40.388 117.2 40.352 117.32 40.376C117.464 40.4 117.536 40.448 117.536 40.52L116.996 45.416C116.948 45.704 116.888 45.896 116.816 45.992C116.768 46.064 116.636 46.148 116.42 46.244C114.284 47.036 112.088 47.432 109.832 47.432C106.904 47.432 104.456 46.856 102.488 45.704C100.52 44.528 99.068 43.052 98.132 41.276C97.22 39.476 96.764 37.604 96.764 35.66C96.764 33.38 97.376 31.364 98.6 29.612C99.848 27.86 101.492 26.504 103.532 25.544C105.596 24.584 107.804 24.104 110.156 24.104ZM136.758 46.568C136.854 46.568 136.902 46.64 136.902 46.784C136.902 46.928 136.854 47 136.758 47C136.134 47 135.63 46.988 135.246 46.964L133.158 46.928L130.998 46.964C130.638 46.988 130.146 47 129.522 47C129.474 47 129.45 46.928 129.45 46.784C129.45 46.64 129.474 46.568 129.522 46.568C130.266 46.568 130.77 46.4 131.034 46.064C131.322 45.704 131.466 45.044 131.466 44.084V38.9C131.466 37.604 131.226 36.644 130.746 36.02C130.266 35.396 129.522 35.084 128.514 35.084C127.938 35.084 127.338 35.204 126.714 35.444C126.114 35.684 125.586 36.008 125.13 36.416V44.084C125.13 45.044 125.262 45.704 125.526 46.064C125.814 46.4 126.33 46.568 127.074 46.568C127.17 46.568 127.218 46.64 127.218 46.784C127.218 46.928 127.17 47 127.074 47C126.45 47 125.946 46.988 125.562 46.964L123.474 46.928L121.314 46.964C120.954 46.988 120.462 47 119.838 47C119.79 47 119.766 46.928 119.766 46.784C119.766 46.64 119.79 46.568 119.838 46.568C120.582 46.568 121.086 46.4 121.35 46.064C121.638 45.704 121.782 45.044 121.782 44.084V25.796C121.782 24.956 121.698 24.356 121.53 23.996C121.386 23.636 121.122 23.456 120.738 23.456C120.402 23.456 119.946 23.588 119.37 23.852H119.334C119.262 23.852 119.19 23.792 119.118 23.672C119.07 23.528 119.07 23.444 119.118 23.42L124.374 20.936L124.554 20.9C124.674 20.9 124.794 20.96 124.914 21.08C125.058 21.176 125.13 21.272 125.13 21.368V35.624C126.834 33.656 128.658 32.672 130.602 32.672C131.898 32.672 132.918 33.092 133.662 33.932C134.43 34.748 134.814 35.828 134.814 37.172V44.084C134.814 45.044 134.946 45.704 135.21 46.064C135.498 46.4 136.014 46.568 136.758 46.568ZM152.482 45.056C152.578 45.056 152.638 45.116 152.662 45.236C152.71 45.332 152.686 45.404 152.59 45.452L148.882 47.216C148.786 47.264 148.666 47.288 148.522 47.288C148.162 47.288 147.802 47.108 147.442 46.748C147.106 46.388 146.866 45.896 146.722 45.272L145.066 46.172C144.442 46.484 143.794 46.748 143.122 46.964C142.45 47.156 141.85 47.252 141.322 47.252C140.554 47.252 139.942 47.06 139.486 46.676C139.054 46.268 138.838 45.692 138.838 44.948C138.838 44.396 138.97 43.952 139.234 43.616C139.522 43.28 139.918 43.004 140.422 42.788C140.95 42.548 141.778 42.236 142.906 41.852L146.578 40.664V37.82C146.578 36.38 146.434 35.324 146.146 34.652C145.858 33.956 145.39 33.608 144.742 33.608C144.166 33.608 143.71 33.824 143.374 34.256C143.038 34.688 142.834 35.396 142.762 36.38C142.618 37.724 141.91 38.396 140.638 38.396C139.51 38.396 138.946 37.904 138.946 36.92C138.946 36.272 139.354 35.624 140.17 34.976C140.986 34.328 141.97 33.8 143.122 33.392C144.274 32.984 145.282 32.78 146.146 32.78C147.274 32.78 148.186 33.116 148.882 33.788C149.602 34.46 149.962 35.444 149.962 36.74V43.112C149.962 43.808 150.082 44.348 150.322 44.732C150.586 45.116 150.946 45.308 151.402 45.308C151.738 45.308 152.086 45.224 152.446 45.056H152.482ZM146.614 44.696C146.59 44.528 146.578 44.276 146.578 43.94V41.276L144.598 41.996C143.95 42.236 143.482 42.5 143.194 42.788C142.93 43.076 142.798 43.424 142.798 43.832C142.798 44.336 142.942 44.732 143.23 45.02C143.518 45.308 143.878 45.452 144.31 45.452C144.838 45.452 145.45 45.284 146.146 44.948L146.614 44.696ZM163.315 32.744C163.867 32.744 164.395 32.948 164.899 33.356C165.427 33.74 165.691 34.208 165.691 34.76C165.691 35.264 165.535 35.684 165.223 36.02C164.911 36.332 164.503 36.488 163.999 36.488C163.639 36.488 163.339 36.416 163.099 36.272C162.883 36.128 162.655 35.912 162.415 35.624C162.199 35.384 162.007 35.216 161.839 35.12C161.695 35 161.515 34.94 161.299 34.94C161.059 34.94 160.795 35.036 160.507 35.228C160.243 35.396 159.823 35.768 159.247 36.344V44.084C159.247 45.044 159.475 45.704 159.931 46.064C160.387 46.4 161.227 46.568 162.451 46.568C162.547 46.568 162.595 46.64 162.595 46.784C162.595 46.928 162.547 47 162.451 47C161.611 47 160.951 46.988 160.471 46.964L157.555 46.928L155.431 46.964C155.071 46.988 154.579 47 153.955 47C153.883 47 153.847 46.928 153.847 46.784C153.847 46.64 153.883 46.568 153.955 46.568C154.699 46.568 155.203 46.4 155.467 46.064C155.731 45.704 155.863 45.044 155.863 44.084V37.316C155.863 36.572 155.767 36.032 155.575 35.696C155.407 35.336 155.131 35.156 154.747 35.156C154.339 35.156 153.763 35.324 153.019 35.66H152.947C152.875 35.66 152.815 35.6 152.767 35.48C152.743 35.36 152.755 35.288 152.803 35.264L157.807 32.816C157.951 32.768 158.035 32.744 158.059 32.744C158.323 32.744 158.563 32.996 158.779 33.5C159.019 33.98 159.163 34.64 159.211 35.48C160.195 34.472 160.999 33.764 161.623 33.356C162.271 32.948 162.835 32.744 163.315 32.744ZM167.595 47C167.523 47 167.487 46.928 167.487 46.784C167.487 46.64 167.523 46.568 167.595 46.568C168.339 46.568 168.843 46.4 169.107 46.064C169.371 45.704 169.503 45.044 169.503 44.084V37.64C169.503 36.824 169.419 36.236 169.251 35.876C169.083 35.516 168.807 35.336 168.423 35.336C168.111 35.336 167.667 35.468 167.091 35.732H167.055C166.959 35.732 166.887 35.672 166.839 35.552C166.791 35.408 166.803 35.324 166.875 35.3L172.311 32.78L172.419 32.744C172.539 32.744 172.659 32.804 172.779 32.924C172.899 33.044 172.959 33.152 172.959 33.248V34.04C172.911 35 172.887 36.176 172.887 37.568V44.084C172.887 45.044 173.019 45.704 173.283 46.064C173.571 46.4 174.087 46.568 174.831 46.568C174.903 46.568 174.939 46.64 174.939 46.784C174.939 46.928 174.903 47 174.831 47C174.207 47 173.715 46.988 173.355 46.964L171.195 46.928L169.071 46.964C168.711 46.988 168.219 47 167.595 47ZM171.051 29.18C170.355 29.18 169.815 28.988 169.431 28.604C169.047 28.22 168.855 27.68 168.855 26.984C168.855 26.36 169.047 25.868 169.431 25.508C169.839 25.124 170.379 24.932 171.051 24.932C171.723 24.932 172.239 25.112 172.599 25.472C172.959 25.832 173.139 26.336 173.139 26.984C173.139 27.68 172.959 28.22 172.599 28.604C172.239 28.988 171.723 29.18 171.051 29.18ZM179.896 34.832C179.896 35.528 180.136 36.128 180.616 36.632C181.12 37.136 181.84 37.664 182.776 38.216C183.688 38.744 184.36 39.164 184.792 39.476C185.248 39.764 185.656 40.184 186.016 40.736C186.376 41.264 186.556 41.912 186.556 42.68C186.556 43.496 186.352 44.264 185.944 44.984C185.536 45.704 184.924 46.292 184.108 46.748C183.292 47.18 182.32 47.396 181.192 47.396C179.872 47.396 178.624 47.072 177.448 46.424C177.304 46.28 177.232 46.136 177.232 45.992L177.16 42.428C177.16 42.356 177.22 42.32 177.34 42.32C177.484 42.296 177.568 42.308 177.592 42.356C177.976 43.556 178.612 44.576 179.5 45.416C180.388 46.256 181.288 46.676 182.2 46.676C182.704 46.676 183.1 46.52 183.388 46.208C183.7 45.896 183.856 45.44 183.856 44.84C183.856 43.952 183.604 43.256 183.1 42.752C182.596 42.224 181.852 41.684 180.868 41.132C180.028 40.676 179.392 40.304 178.96 40.016C178.528 39.728 178.144 39.32 177.808 38.792C177.472 38.264 177.304 37.616 177.304 36.848C177.304 35.432 177.808 34.4 178.816 33.752C179.824 33.08 181.06 32.744 182.524 32.744C183.076 32.744 183.568 32.78 184 32.852C184.456 32.924 184.96 33.068 185.512 33.284C185.728 33.356 185.836 33.488 185.836 33.68C185.836 34.28 185.824 34.748 185.8 35.084L185.764 36.884C185.764 36.956 185.692 36.992 185.548 36.992C185.404 36.992 185.332 36.956 185.332 36.884C185.332 36.428 185.14 35.936 184.756 35.408C184.372 34.856 183.868 34.388 183.244 34.004C182.644 33.62 182.02 33.428 181.372 33.428C180.388 33.428 179.896 33.896 179.896 34.832ZM211.371 24.104C212.427 24.104 213.531 24.2 214.683 24.392C215.835 24.56 216.735 24.788 217.383 25.076C217.599 25.148 217.731 25.244 217.779 25.364C217.851 25.46 217.911 25.64 217.959 25.904L218.391 30.908C218.391 30.98 218.331 31.028 218.211 31.052C218.091 31.076 218.019 31.04 217.995 30.944C217.179 29.048 216.087 27.584 214.719 26.552C213.351 25.52 211.767 25.004 209.967 25.004C207.591 25.004 205.755 25.88 204.459 27.632C203.163 29.384 202.515 31.736 202.515 34.688C202.515 36.896 202.863 38.912 203.559 40.736C204.279 42.56 205.275 44.012 206.547 45.092C207.843 46.148 209.307 46.676 210.939 46.676C212.475 46.676 213.843 46.172 215.043 45.164C216.267 44.132 217.359 42.572 218.319 40.484C218.343 40.388 218.415 40.352 218.535 40.376C218.679 40.4 218.751 40.448 218.751 40.52L218.211 45.416C218.163 45.704 218.103 45.896 218.031 45.992C217.983 46.064 217.851 46.148 217.635 46.244C215.499 47.036 213.303 47.432 211.047 47.432C208.119 47.432 205.671 46.856 203.703 45.704C201.735 44.528 200.283 43.052 199.347 41.276C198.435 39.476 197.979 37.604 197.979 35.66C197.979 33.38 198.591 31.364 199.815 29.612C201.063 27.86 202.707 26.504 204.747 25.544C206.811 24.584 209.019 24.104 211.371 24.104ZM228.829 47.468C227.341 47.468 226.033 47.132 224.905 46.46C223.801 45.764 222.949 44.84 222.349 43.688C221.749 42.512 221.449 41.24 221.449 39.872C221.449 38.312 221.845 36.992 222.637 35.912C223.429 34.808 224.437 33.992 225.661 33.464C226.885 32.912 228.145 32.636 229.441 32.636C230.929 32.636 232.225 32.984 233.329 33.68C234.433 34.376 235.273 35.3 235.849 36.452C236.449 37.58 236.749 38.792 236.749 40.088C236.749 41.528 236.389 42.812 235.669 43.94C234.949 45.044 233.977 45.908 232.753 46.532C231.553 47.156 230.245 47.468 228.829 47.468ZM229.909 46.712C230.845 46.712 231.553 46.256 232.033 45.344C232.537 44.408 232.789 43.076 232.789 41.348C232.789 39.668 232.573 38.228 232.141 37.028C231.709 35.828 231.145 34.928 230.449 34.328C229.753 33.704 229.009 33.392 228.217 33.392C226.297 33.392 225.337 35.108 225.337 38.54C225.337 40.148 225.541 41.576 225.949 42.824C226.357 44.048 226.909 45.008 227.605 45.704C228.301 46.376 229.069 46.712 229.909 46.712ZM256.234 46.568C256.306 46.568 256.342 46.64 256.342 46.784C256.342 46.928 256.306 47 256.234 47C255.61 47 255.118 46.988 254.758 46.964L252.598 46.928L250.51 46.964C250.126 46.988 249.622 47 248.998 47C248.926 47 248.89 46.928 248.89 46.784C248.89 46.64 248.926 46.568 248.998 46.568C249.742 46.568 250.246 46.4 250.51 46.064C250.774 45.704 250.906 45.044 250.906 44.084V38.9C250.906 37.604 250.666 36.644 250.186 36.02C249.73 35.396 248.998 35.084 247.99 35.084C247.414 35.084 246.814 35.204 246.19 35.444C245.59 35.684 245.062 36.008 244.606 36.416V44.084C244.606 45.044 244.738 45.704 245.002 46.064C245.29 46.4 245.806 46.568 246.55 46.568C246.622 46.568 246.658 46.64 246.658 46.784C246.658 46.928 246.622 47 246.55 47C245.926 47 245.434 46.988 245.074 46.964L242.914 46.928L240.79 46.964C240.43 46.988 239.938 47 239.314 47C239.242 47 239.206 46.928 239.206 46.784C239.206 46.64 239.242 46.568 239.314 46.568C240.058 46.568 240.562 46.4 240.826 46.064C241.09 45.704 241.222 45.044 241.222 44.084V37.316C241.222 36.572 241.126 36.032 240.934 35.696C240.766 35.336 240.49 35.156 240.106 35.156C239.698 35.156 239.122 35.324 238.378 35.66H238.306C238.234 35.66 238.174 35.6 238.126 35.48C238.102 35.36 238.114 35.288 238.162 35.264L243.166 32.816C243.31 32.768 243.394 32.744 243.418 32.744C243.682 32.744 243.934 33.008 244.174 33.536C244.414 34.04 244.558 34.736 244.606 35.624C246.262 33.656 248.086 32.672 250.078 32.672C251.374 32.672 252.394 33.092 253.138 33.932C253.906 34.748 254.29 35.828 254.29 37.172V44.084C254.29 45.044 254.422 45.704 254.686 46.064C254.974 46.4 255.49 46.568 256.234 46.568ZM261.107 34.832C261.107 35.528 261.347 36.128 261.827 36.632C262.331 37.136 263.051 37.664 263.987 38.216C264.899 38.744 265.571 39.164 266.003 39.476C266.459 39.764 266.867 40.184 267.227 40.736C267.587 41.264 267.767 41.912 267.767 42.68C267.767 43.496 267.563 44.264 267.155 44.984C266.747 45.704 266.135 46.292 265.319 46.748C264.503 47.18 263.531 47.396 262.403 47.396C261.083 47.396 259.835 47.072 258.659 46.424C258.515 46.28 258.443 46.136 258.443 45.992L258.371 42.428C258.371 42.356 258.431 42.32 258.551 42.32C258.695 42.296 258.779 42.308 258.803 42.356C259.187 43.556 259.823 44.576 260.711 45.416C261.599 46.256 262.499 46.676 263.411 46.676C263.915 46.676 264.311 46.52 264.599 46.208C264.911 45.896 265.067 45.44 265.067 44.84C265.067 43.952 264.815 43.256 264.311 42.752C263.807 42.224 263.063 41.684 262.079 41.132C261.239 40.676 260.603 40.304 260.171 40.016C259.739 39.728 259.355 39.32 259.019 38.792C258.683 38.264 258.515 37.616 258.515 36.848C258.515 35.432 259.019 34.4 260.027 33.752C261.035 33.08 262.271 32.744 263.735 32.744C264.287 32.744 264.779 32.78 265.211 32.852C265.667 32.924 266.171 33.068 266.723 33.284C266.939 33.356 267.047 33.488 267.047 33.68C267.047 34.28 267.035 34.748 267.011 35.084L266.975 36.884C266.975 36.956 266.903 36.992 266.759 36.992C266.615 36.992 266.543 36.956 266.543 36.884C266.543 36.428 266.351 35.936 265.967 35.408C265.583 34.856 265.079 34.388 264.455 34.004C263.855 33.62 263.231 33.428 262.583 33.428C261.599 33.428 261.107 33.896 261.107 34.832ZM286.952 44.66C287.024 44.66 287.084 44.72 287.132 44.84C287.204 44.96 287.204 45.032 287.132 45.056L282.164 47.468C282.116 47.492 282.056 47.504 281.984 47.504C281.744 47.504 281.528 47.252 281.336 46.748C281.168 46.22 281.072 45.512 281.048 44.624C279.464 46.496 277.748 47.432 275.9 47.432C274.58 47.432 273.536 47.024 272.768 46.208C272.024 45.368 271.652 44.276 271.652 42.932V37.64C271.652 36.08 271.28 35.3 270.536 35.3C270.272 35.3 269.972 35.384 269.636 35.552H269.6C269.504 35.552 269.432 35.492 269.384 35.372C269.336 35.228 269.348 35.144 269.42 35.12L274.244 32.816L274.424 32.78C274.544 32.78 274.664 32.84 274.784 32.96C274.928 33.056 275 33.152 275 33.248V41.204C275 43.796 275.996 45.092 277.988 45.092C278.516 45.092 279.044 44.984 279.572 44.768C280.124 44.528 280.616 44.204 281.048 43.796V37.64C281.048 36.08 280.676 35.3 279.932 35.3C279.668 35.3 279.356 35.384 278.996 35.552H278.96C278.888 35.552 278.828 35.492 278.78 35.372C278.732 35.228 278.744 35.144 278.816 35.12L283.64 32.816C283.688 32.792 283.748 32.78 283.82 32.78C283.94 32.78 284.06 32.84 284.18 32.96C284.324 33.056 284.396 33.152 284.396 33.248V42.824C284.396 43.64 284.468 44.216 284.612 44.552C284.78 44.888 285.044 45.056 285.404 45.056C285.74 45.056 286.232 44.924 286.88 44.66H286.952ZM288.424 47C288.376 47 288.352 46.928 288.352 46.784C288.352 46.64 288.376 46.568 288.424 46.568C289.168 46.568 289.672 46.4 289.936 46.064C290.224 45.704 290.368 45.044 290.368 44.084L290.404 25.796C290.404 24.956 290.32 24.356 290.152 23.996C290.008 23.636 289.744 23.456 289.36 23.456C289.048 23.456 288.592 23.588 287.992 23.852H287.956C287.884 23.852 287.812 23.792 287.74 23.672C287.692 23.528 287.692 23.444 287.74 23.42L293.032 20.936L293.176 20.9C293.296 20.9 293.428 20.96 293.572 21.08C293.716 21.176 293.788 21.272 293.788 21.368V44.084C293.788 45.044 293.92 45.704 294.184 46.064C294.448 46.4 294.952 46.568 295.696 46.568C295.792 46.568 295.84 46.64 295.84 46.784C295.84 46.928 295.792 47 295.696 47C295.096 47 294.616 46.988 294.256 46.964L292.06 46.928L289.9 46.964C289.54 46.988 289.048 47 288.424 47ZM308.461 44.48C308.557 44.48 308.629 44.528 308.677 44.624C308.749 44.72 308.749 44.792 308.677 44.84C307.789 45.728 306.925 46.388 306.085 46.82C305.245 47.228 304.357 47.432 303.421 47.432C302.365 47.432 301.465 47.18 300.721 46.676C299.977 46.172 299.605 45.32 299.605 44.12V36.128C299.605 35.384 299.473 34.868 299.209 34.58C298.945 34.292 298.465 34.148 297.769 34.148C297.745 34.148 297.709 34.112 297.661 34.04C297.637 33.968 297.625 33.896 297.625 33.824C297.625 33.728 297.637 33.656 297.661 33.608C297.685 33.536 297.721 33.5 297.769 33.5C298.993 33.452 299.977 33.188 300.721 32.708C301.489 32.228 302.077 31.496 302.485 30.512C302.533 30.416 302.629 30.368 302.773 30.368C302.941 30.368 303.025 30.416 303.025 30.512V33.392C304.417 33.368 305.977 33.26 307.705 33.068C307.753 33.068 307.801 33.164 307.849 33.356C307.921 33.524 307.957 33.716 307.957 33.932C307.957 34.172 307.909 34.412 307.813 34.652C307.741 34.868 307.657 34.964 307.561 34.94C306.001 34.604 304.489 34.424 303.025 34.4V42.932C303.025 43.844 303.253 44.516 303.709 44.948C304.189 45.38 304.813 45.596 305.581 45.596C306.541 45.596 307.477 45.236 308.389 44.516L308.461 44.48Z" fill="black"/>
<path d="M108.378 69.065C108.187 69.065 108.023 68.9957 107.884 68.857C107.754 68.7183 107.689 68.5493 107.689 68.35C107.689 68.1507 107.754 67.986 107.884 67.856C108.023 67.7173 108.187 67.648 108.378 67.648C108.569 67.648 108.733 67.7173 108.872 67.856C109.011 67.986 109.08 68.1507 109.08 68.35C109.08 68.5493 109.011 68.7183 108.872 68.857C108.733 68.9957 108.569 69.065 108.378 69.065ZM111.133 69.065C110.942 69.065 110.778 68.9957 110.639 68.857C110.509 68.7183 110.444 68.5493 110.444 68.35C110.444 68.1507 110.509 67.986 110.639 67.856C110.778 67.7173 110.942 67.648 111.133 67.648C111.324 67.648 111.488 67.7173 111.627 67.856C111.766 67.986 111.835 68.1507 111.835 68.35C111.835 68.5493 111.766 68.7183 111.627 68.857C111.488 68.9957 111.324 69.065 111.133 69.065ZM113.888 69.065C113.697 69.065 113.532 68.9957 113.394 68.857C113.264 68.7183 113.199 68.5493 113.199 68.35C113.199 68.1507 113.264 67.986 113.394 67.856C113.532 67.7173 113.697 67.648 113.888 67.648C114.078 67.648 114.243 67.7173 114.382 67.856C114.52 67.986 114.59 68.1507 114.59 68.35C114.59 68.5493 114.52 68.7183 114.382 68.857C114.243 68.9957 114.078 69.065 113.888 69.065ZM119.195 69.065C118.519 69.065 117.913 68.9177 117.375 68.623C116.847 68.3283 116.431 67.9167 116.127 67.388C115.824 66.8507 115.672 66.2483 115.672 65.581C115.672 64.9137 115.824 64.3157 116.127 63.787C116.431 63.2583 116.847 62.8467 117.375 62.552C117.913 62.2573 118.519 62.11 119.195 62.11C119.785 62.11 120.309 62.227 120.768 62.461C121.236 62.6863 121.605 63.02 121.873 63.462L121.184 63.93C120.959 63.592 120.673 63.3407 120.326 63.176C119.98 63.0027 119.603 62.916 119.195 62.916C118.701 62.916 118.255 63.0287 117.856 63.254C117.466 63.4707 117.159 63.7827 116.933 64.19C116.717 64.5973 116.608 65.061 116.608 65.581C116.608 66.1097 116.717 66.5777 116.933 66.985C117.159 67.3837 117.466 67.6957 117.856 67.921C118.255 68.1377 118.701 68.246 119.195 68.246C119.603 68.246 119.98 68.1637 120.326 67.999C120.673 67.8343 120.959 67.583 121.184 67.245L121.873 67.713C121.605 68.155 121.236 68.493 120.768 68.727C120.3 68.9523 119.776 69.065 119.195 69.065ZM124.57 63.501C124.787 63.0417 125.108 62.695 125.532 62.461C125.966 62.227 126.499 62.11 127.131 62.11V63.007L126.91 62.994C126.191 62.994 125.628 63.215 125.22 63.657C124.813 64.099 124.609 64.7187 124.609 65.516V69H123.686V62.162H124.57V63.501ZM134.693 65.867H128.973C129.025 66.5777 129.298 67.154 129.792 67.596C130.286 68.0293 130.91 68.246 131.664 68.246C132.089 68.246 132.479 68.1723 132.834 68.025C133.189 67.869 133.497 67.6437 133.757 67.349L134.277 67.947C133.974 68.311 133.592 68.5883 133.133 68.779C132.682 68.9697 132.184 69.065 131.638 69.065C130.936 69.065 130.312 68.9177 129.766 68.623C129.229 68.3197 128.808 67.9037 128.505 67.375C128.202 66.8463 128.05 66.2483 128.05 65.581C128.05 64.9137 128.193 64.3157 128.479 63.787C128.774 63.2583 129.172 62.8467 129.675 62.552C130.186 62.2573 130.758 62.11 131.391 62.11C132.024 62.11 132.591 62.2573 133.094 62.552C133.597 62.8467 133.991 63.2583 134.277 63.787C134.563 64.307 134.706 64.905 134.706 65.581L134.693 65.867ZM131.391 62.903C130.732 62.903 130.178 63.1153 129.727 63.54C129.285 63.956 129.034 64.502 128.973 65.178H133.822C133.761 64.502 133.506 63.956 133.055 63.54C132.613 63.1153 132.058 62.903 131.391 62.903ZM138.786 62.11C139.679 62.11 140.364 62.3353 140.84 62.786C141.317 63.228 141.555 63.8867 141.555 64.762V69H140.671V67.934C140.463 68.2893 140.156 68.5667 139.748 68.766C139.35 68.9653 138.873 69.065 138.318 69.065C137.556 69.065 136.949 68.883 136.498 68.519C136.048 68.155 135.822 67.674 135.822 67.076C135.822 66.4953 136.03 66.0273 136.446 65.672C136.871 65.3167 137.543 65.139 138.461 65.139H140.632V64.723C140.632 64.1337 140.468 63.6873 140.138 63.384C139.809 63.072 139.328 62.916 138.695 62.916C138.262 62.916 137.846 62.9897 137.447 63.137C137.049 63.2757 136.706 63.4707 136.42 63.722L136.004 63.033C136.351 62.7383 136.767 62.513 137.252 62.357C137.738 62.1923 138.249 62.11 138.786 62.11ZM138.461 68.337C138.981 68.337 139.428 68.22 139.8 67.986C140.173 67.7433 140.45 67.3967 140.632 66.946V65.828H138.487C137.317 65.828 136.732 66.2353 136.732 67.05C136.732 67.4487 136.884 67.765 137.187 67.999C137.491 68.2243 137.915 68.337 138.461 68.337ZM147.663 68.584C147.49 68.74 147.273 68.8613 147.013 68.948C146.762 69.026 146.498 69.065 146.22 69.065C145.579 69.065 145.085 68.8917 144.738 68.545C144.392 68.1983 144.218 67.7087 144.218 67.076V62.942H142.996V62.162H144.218V60.667H145.141V62.162H147.221V62.942H145.141V67.024C145.141 67.4313 145.241 67.7433 145.44 67.96C145.648 68.168 145.943 68.272 146.324 68.272C146.515 68.272 146.697 68.2417 146.87 68.181C147.052 68.1203 147.208 68.0337 147.338 67.921L147.663 68.584ZM149.344 62.162H150.267V69H149.344V62.162ZM149.812 60.667C149.621 60.667 149.461 60.602 149.331 60.472C149.201 60.342 149.136 60.186 149.136 60.004C149.136 59.8307 149.201 59.679 149.331 59.549C149.461 59.419 149.621 59.354 149.812 59.354C150.002 59.354 150.163 59.419 150.293 59.549C150.423 59.6703 150.488 59.8177 150.488 59.991C150.488 60.1817 150.423 60.342 150.293 60.472C150.163 60.602 150.002 60.667 149.812 60.667ZM156.319 62.11C157.177 62.11 157.857 62.3613 158.36 62.864C158.871 63.358 159.127 64.0817 159.127 65.035V69H158.204V65.126C158.204 64.4153 158.026 63.8737 157.671 63.501C157.316 63.1283 156.809 62.942 156.15 62.942C155.413 62.942 154.828 63.163 154.395 63.605C153.97 64.0383 153.758 64.6407 153.758 65.412V69H152.835V62.162H153.719V63.423C153.97 63.007 154.317 62.6863 154.759 62.461C155.21 62.227 155.73 62.11 156.319 62.11ZM167.989 62.162V68.168C167.989 69.3293 167.703 70.1873 167.131 70.742C166.568 71.3053 165.714 71.587 164.57 71.587C163.937 71.587 163.335 71.4917 162.763 71.301C162.2 71.119 161.74 70.8633 161.385 70.534L161.853 69.832C162.182 70.1267 162.581 70.3563 163.049 70.521C163.526 70.6857 164.024 70.768 164.544 70.768C165.411 70.768 166.048 70.5643 166.455 70.157C166.862 69.7583 167.066 69.1343 167.066 68.285V67.414C166.78 67.8473 166.403 68.1767 165.935 68.402C165.476 68.6273 164.964 68.74 164.401 68.74C163.76 68.74 163.175 68.6013 162.646 68.324C162.126 68.038 161.714 67.6437 161.411 67.141C161.116 66.6297 160.969 66.0533 160.969 65.412C160.969 64.7707 161.116 64.1987 161.411 63.696C161.714 63.1933 162.126 62.8033 162.646 62.526C163.166 62.2487 163.751 62.11 164.401 62.11C164.982 62.11 165.506 62.227 165.974 62.461C166.442 62.695 166.819 63.033 167.105 63.475V62.162H167.989ZM164.492 67.921C164.986 67.921 165.432 67.817 165.831 67.609C166.23 67.3923 166.537 67.0933 166.754 66.712C166.979 66.3307 167.092 65.8973 167.092 65.412C167.092 64.9267 166.979 64.4977 166.754 64.125C166.537 63.7437 166.23 63.449 165.831 63.241C165.441 63.0243 164.995 62.916 164.492 62.916C163.998 62.916 163.552 63.02 163.153 63.228C162.763 63.436 162.455 63.7307 162.23 64.112C162.013 64.4933 161.905 64.9267 161.905 65.412C161.905 65.8973 162.013 66.3307 162.23 66.712C162.455 67.0933 162.763 67.3923 163.153 67.609C163.552 67.817 163.998 67.921 164.492 67.921ZM184.009 62.162L181.422 69H180.551L178.393 63.397L176.235 69H175.364L172.79 62.162H173.674L175.819 67.973L178.016 62.162H178.809L180.993 67.973L183.164 62.162H184.009ZM191.162 65.867H185.442C185.494 66.5777 185.767 67.154 186.261 67.596C186.755 68.0293 187.379 68.246 188.133 68.246C188.558 68.246 188.948 68.1723 189.303 68.025C189.658 67.869 189.966 67.6437 190.226 67.349L190.746 67.947C190.443 68.311 190.061 68.5883 189.602 68.779C189.151 68.9697 188.653 69.065 188.107 69.065C187.405 69.065 186.781 68.9177 186.235 68.623C185.698 68.3197 185.277 67.9037 184.974 67.375C184.671 66.8463 184.519 66.2483 184.519 65.581C184.519 64.9137 184.662 64.3157 184.948 63.787C185.243 63.2583 185.641 62.8467 186.144 62.552C186.655 62.2573 187.227 62.11 187.86 62.11C188.493 62.11 189.06 62.2573 189.563 62.552C190.066 62.8467 190.46 63.2583 190.746 63.787C191.032 64.307 191.175 64.905 191.175 65.581L191.162 65.867ZM187.86 62.903C187.201 62.903 186.647 63.1153 186.196 63.54C185.754 63.956 185.503 64.502 185.442 65.178H190.291C190.23 64.502 189.975 63.956 189.524 63.54C189.082 63.1153 188.527 62.903 187.86 62.903ZM195.255 62.11C196.148 62.11 196.833 62.3353 197.309 62.786C197.786 63.228 198.024 63.8867 198.024 64.762V69H197.14V67.934C196.932 68.2893 196.625 68.5667 196.217 68.766C195.819 68.9653 195.342 69.065 194.787 69.065C194.025 69.065 193.418 68.883 192.967 68.519C192.517 68.155 192.291 67.674 192.291 67.076C192.291 66.4953 192.499 66.0273 192.915 65.672C193.34 65.3167 194.012 65.139 194.93 65.139H197.101V64.723C197.101 64.1337 196.937 63.6873 196.607 63.384C196.278 63.072 195.797 62.916 195.164 62.916C194.731 62.916 194.315 62.9897 193.916 63.137C193.518 63.2757 193.175 63.4707 192.889 63.722L192.473 63.033C192.82 62.7383 193.236 62.513 193.721 62.357C194.207 62.1923 194.718 62.11 195.255 62.11ZM194.93 68.337C195.45 68.337 195.897 68.22 196.269 67.986C196.642 67.7433 196.919 67.3967 197.101 66.946V65.828H194.956C193.786 65.828 193.201 66.2353 193.201 67.05C193.201 67.4487 193.353 67.765 193.656 67.999C193.96 68.2243 194.384 68.337 194.93 68.337ZM200.531 59.354H201.454V69H200.531V59.354ZM207.649 68.584C207.475 68.74 207.259 68.8613 206.999 68.948C206.747 69.026 206.483 69.065 206.206 69.065C205.564 69.065 205.07 68.8917 204.724 68.545C204.377 68.1983 204.204 67.7087 204.204 67.076V62.942H202.982V62.162H204.204V60.667H205.127V62.162H207.207V62.942H205.127V67.024C205.127 67.4313 205.226 67.7433 205.426 67.96C205.634 68.168 205.928 68.272 206.31 68.272C206.5 68.272 206.682 68.2417 206.856 68.181C207.038 68.1203 207.194 68.0337 207.324 67.921L207.649 68.584ZM212.813 62.11C213.671 62.11 214.351 62.3613 214.854 62.864C215.365 63.358 215.621 64.0817 215.621 65.035V69H214.698V65.126C214.698 64.4153 214.52 63.8737 214.165 63.501C213.81 63.1283 213.303 62.942 212.644 62.942C211.907 62.942 211.322 63.163 210.889 63.605C210.464 64.0383 210.252 64.6407 210.252 65.412V69H209.329V59.354H210.252V63.358C210.503 62.9593 210.85 62.6517 211.292 62.435C211.734 62.2183 212.241 62.11 212.813 62.11ZM224.324 69.065C223.666 69.065 223.072 68.9177 222.543 68.623C222.015 68.3197 221.599 67.9037 221.295 67.375C220.992 66.8463 220.84 66.2483 220.84 65.581C220.84 64.9137 220.992 64.3157 221.295 63.787C221.599 63.2583 222.015 62.8467 222.543 62.552C223.072 62.2573 223.666 62.11 224.324 62.11C224.983 62.11 225.577 62.2573 226.105 62.552C226.634 62.8467 227.046 63.2583 227.34 63.787C227.644 64.3157 227.795 64.9137 227.795 65.581C227.795 66.2483 227.644 66.8463 227.34 67.375C227.046 67.9037 226.634 68.3197 226.105 68.623C225.577 68.9177 224.983 69.065 224.324 69.065ZM224.324 68.246C224.81 68.246 225.243 68.1377 225.624 67.921C226.014 67.6957 226.318 67.3793 226.534 66.972C226.751 66.5647 226.859 66.101 226.859 65.581C226.859 65.061 226.751 64.5973 226.534 64.19C226.318 63.7827 226.014 63.4707 225.624 63.254C225.243 63.0287 224.81 62.916 224.324 62.916C223.839 62.916 223.401 63.0287 223.011 63.254C222.63 63.4707 222.327 63.7827 222.101 64.19C221.885 64.5973 221.776 65.061 221.776 65.581C221.776 66.101 221.885 66.5647 222.101 66.972C222.327 67.3793 222.63 67.6957 223.011 67.921C223.401 68.1377 223.839 68.246 224.324 68.246ZM233.203 62.11C233.844 62.11 234.425 62.2573 234.945 62.552C235.465 62.838 235.872 63.2453 236.167 63.774C236.461 64.3027 236.609 64.905 236.609 65.581C236.609 66.2657 236.461 66.8723 236.167 67.401C235.872 67.9297 235.465 68.3413 234.945 68.636C234.433 68.922 233.853 69.065 233.203 69.065C232.648 69.065 232.145 68.9523 231.695 68.727C231.253 68.493 230.889 68.155 230.603 67.713V71.522H229.68V62.162H230.564V63.514C230.841 63.0633 231.205 62.7167 231.656 62.474C232.115 62.2313 232.631 62.11 233.203 62.11ZM233.138 68.246C233.614 68.246 234.048 68.1377 234.438 67.921C234.828 67.6957 235.131 67.3793 235.348 66.972C235.573 66.5647 235.686 66.101 235.686 65.581C235.686 65.061 235.573 64.6017 235.348 64.203C235.131 63.7957 234.828 63.4793 234.438 63.254C234.048 63.0287 233.614 62.916 233.138 62.916C232.652 62.916 232.215 63.0287 231.825 63.254C231.443 63.4793 231.14 63.7957 230.915 64.203C230.698 64.6017 230.59 65.061 230.59 65.581C230.59 66.101 230.698 66.5647 230.915 66.972C231.14 67.3793 231.443 67.6957 231.825 67.921C232.215 68.1377 232.652 68.246 233.138 68.246ZM242.013 62.11C242.654 62.11 243.235 62.2573 243.755 62.552C244.275 62.838 244.682 63.2453 244.977 63.774C245.272 64.3027 245.419 64.905 245.419 65.581C245.419 66.2657 245.272 66.8723 244.977 67.401C244.682 67.9297 244.275 68.3413 243.755 68.636C243.244 68.922 242.663 69.065 242.013 69.065C241.458 69.065 240.956 68.9523 240.505 68.727C240.063 68.493 239.699 68.155 239.413 67.713V71.522H238.49V62.162H239.374V63.514C239.651 63.0633 240.015 62.7167 240.466 62.474C240.925 62.2313 241.441 62.11 242.013 62.11ZM241.948 68.246C242.425 68.246 242.858 68.1377 243.248 67.921C243.638 67.6957 243.941 67.3793 244.158 66.972C244.383 66.5647 244.496 66.101 244.496 65.581C244.496 65.061 244.383 64.6017 244.158 64.203C243.941 63.7957 243.638 63.4793 243.248 63.254C242.858 63.0287 242.425 62.916 241.948 62.916C241.463 62.916 241.025 63.0287 240.635 63.254C240.254 63.4793 239.95 63.7957 239.725 64.203C239.508 64.6017 239.4 65.061 239.4 65.581C239.4 66.101 239.508 66.5647 239.725 66.972C239.95 67.3793 240.254 67.6957 240.635 67.921C241.025 68.1377 241.463 68.246 241.948 68.246ZM250.096 69.065C249.437 69.065 248.843 68.9177 248.315 68.623C247.786 68.3197 247.37 67.9037 247.067 67.375C246.763 66.8463 246.612 66.2483 246.612 65.581C246.612 64.9137 246.763 64.3157 247.067 63.787C247.37 63.2583 247.786 62.8467 248.315 62.552C248.843 62.2573 249.437 62.11 250.096 62.11C250.754 62.11 251.348 62.2573 251.877 62.552C252.405 62.8467 252.817 63.2583 253.112 63.787C253.415 64.3157 253.567 64.9137 253.567 65.581C253.567 66.2483 253.415 66.8463 253.112 67.375C252.817 67.9037 252.405 68.3197 251.877 68.623C251.348 68.9177 250.754 69.065 250.096 69.065ZM250.096 68.246C250.581 68.246 251.014 68.1377 251.396 67.921C251.786 67.6957 252.089 67.3793 252.306 66.972C252.522 66.5647 252.631 66.101 252.631 65.581C252.631 65.061 252.522 64.5973 252.306 64.19C252.089 63.7827 251.786 63.4707 251.396 63.254C251.014 63.0287 250.581 62.916 250.096 62.916C249.61 62.916 249.173 63.0287 248.783 63.254C248.401 63.4707 248.098 63.7827 247.873 64.19C247.656 64.5973 247.548 65.061 247.548 65.581C247.548 66.101 247.656 66.5647 247.873 66.972C248.098 67.3793 248.401 67.6957 248.783 67.921C249.173 68.1377 249.61 68.246 250.096 68.246ZM256.335 63.501C256.552 63.0417 256.872 62.695 257.297 62.461C257.73 62.227 258.263 62.11 258.896 62.11V63.007L258.675 62.994C257.956 62.994 257.392 63.215 256.985 63.657C256.578 64.099 256.374 64.7187 256.374 65.516V69H255.451V62.162H256.335V63.501ZM264.46 68.584C264.287 68.74 264.07 68.8613 263.81 68.948C263.559 69.026 263.295 69.065 263.017 69.065C262.376 69.065 261.882 68.8917 261.535 68.545C261.189 68.1983 261.015 67.7087 261.015 67.076V62.942H259.793V62.162H261.015V60.667H261.938V62.162H264.018V62.942H261.938V67.024C261.938 67.4313 262.038 67.7433 262.237 67.96C262.445 68.168 262.74 68.272 263.121 68.272C263.312 68.272 263.494 68.2417 263.667 68.181C263.849 68.1203 264.005 68.0337 264.135 67.921L264.46 68.584ZM272.303 62.162V69H271.419V67.752C271.176 68.168 270.842 68.493 270.418 68.727C269.993 68.9523 269.508 69.065 268.962 69.065C268.069 69.065 267.363 68.818 266.843 68.324C266.331 67.8213 266.076 67.089 266.076 66.127V62.162H266.999V66.036C266.999 66.7553 267.176 67.3013 267.532 67.674C267.887 68.0467 268.394 68.233 269.053 68.233C269.772 68.233 270.34 68.0163 270.756 67.583C271.172 67.141 271.38 66.53 271.38 65.75V62.162H272.303ZM278.372 62.11C279.23 62.11 279.91 62.3613 280.413 62.864C280.924 63.358 281.18 64.0817 281.18 65.035V69H280.257V65.126C280.257 64.4153 280.079 63.8737 279.724 63.501C279.368 63.1283 278.861 62.942 278.203 62.942C277.466 62.942 276.881 63.163 276.448 63.605C276.023 64.0383 275.811 64.6407 275.811 65.412V69H274.888V62.162H275.772V63.423C276.023 63.007 276.37 62.6863 276.812 62.461C277.262 62.227 277.782 62.11 278.372 62.11ZM283.685 62.162H284.608V69H283.685V62.162ZM284.153 60.667C283.963 60.667 283.802 60.602 283.672 60.472C283.542 60.342 283.477 60.186 283.477 60.004C283.477 59.8307 283.542 59.679 283.672 59.549C283.802 59.419 283.963 59.354 284.153 59.354C284.344 59.354 284.504 59.419 284.634 59.549C284.764 59.6703 284.829 59.8177 284.829 59.991C284.829 60.1817 284.764 60.342 284.634 60.472C284.504 60.602 284.344 60.667 284.153 60.667ZM290.778 68.584C290.604 68.74 290.388 68.8613 290.128 68.948C289.876 69.026 289.612 69.065 289.335 69.065C288.693 69.065 288.199 68.8917 287.853 68.545C287.506 68.1983 287.333 67.7087 287.333 67.076V62.942H286.111V62.162H287.333V60.667H288.256V62.162H290.336V62.942H288.256V67.024C288.256 67.4313 288.355 67.7433 288.555 67.96C288.763 68.168 289.057 68.272 289.439 68.272C289.629 68.272 289.811 68.2417 289.985 68.181C290.167 68.1203 290.323 68.0337 290.453 67.921L290.778 68.584ZM292.458 62.162H293.381V69H292.458V62.162ZM292.926 60.667C292.735 60.667 292.575 60.602 292.445 60.472C292.315 60.342 292.25 60.186 292.25 60.004C292.25 59.8307 292.315 59.679 292.445 59.549C292.575 59.419 292.735 59.354 292.926 59.354C293.117 59.354 293.277 59.419 293.407 59.549C293.537 59.6703 293.602 59.8177 293.602 59.991C293.602 60.1817 293.537 60.342 293.407 60.472C293.277 60.602 293.117 60.667 292.926 60.667ZM301.903 65.867H296.183C296.235 66.5777 296.508 67.154 297.002 67.596C297.496 68.0293 298.12 68.246 298.874 68.246C299.299 68.246 299.689 68.1723 300.044 68.025C300.399 67.869 300.707 67.6437 300.967 67.349L301.487 67.947C301.184 68.311 300.802 68.5883 300.343 68.779C299.892 68.9697 299.394 69.065 298.848 69.065C298.146 69.065 297.522 68.9177 296.976 68.623C296.439 68.3197 296.018 67.9037 295.715 67.375C295.412 66.8463 295.26 66.2483 295.26 65.581C295.26 64.9137 295.403 64.3157 295.689 63.787C295.984 63.2583 296.382 62.8467 296.885 62.552C297.396 62.2573 297.968 62.11 298.601 62.11C299.234 62.11 299.801 62.2573 300.304 62.552C300.807 62.8467 301.201 63.2583 301.487 63.787C301.773 64.307 301.916 64.905 301.916 65.581L301.903 65.867ZM298.601 62.903C297.942 62.903 297.388 63.1153 296.937 63.54C296.495 63.956 296.244 64.502 296.183 65.178H301.032C300.971 64.502 300.716 63.956 300.265 63.54C299.823 63.1153 299.268 62.903 298.601 62.903ZM305.628 69.065C305.073 69.065 304.54 68.987 304.029 68.831C303.526 68.6663 303.132 68.4627 302.846 68.22L303.262 67.492C303.548 67.7173 303.907 67.9037 304.341 68.051C304.774 68.1897 305.225 68.259 305.693 68.259C306.317 68.259 306.776 68.1637 307.071 67.973C307.374 67.7737 307.526 67.4963 307.526 67.141C307.526 66.8897 307.443 66.6947 307.279 66.556C307.114 66.4087 306.906 66.3003 306.655 66.231C306.403 66.153 306.07 66.0793 305.654 66.01C305.099 65.906 304.653 65.802 304.315 65.698C303.977 65.5853 303.686 65.399 303.444 65.139C303.21 64.879 303.093 64.5193 303.093 64.06C303.093 63.488 303.331 63.02 303.808 62.656C304.284 62.292 304.947 62.11 305.797 62.11C306.239 62.11 306.681 62.1707 307.123 62.292C307.565 62.4047 307.929 62.5563 308.215 62.747L307.812 63.488C307.248 63.098 306.577 62.903 305.797 62.903C305.207 62.903 304.761 63.007 304.458 63.215C304.163 63.423 304.016 63.696 304.016 64.034C304.016 64.294 304.098 64.502 304.263 64.658C304.436 64.814 304.648 64.931 304.9 65.009C305.151 65.0783 305.498 65.152 305.94 65.23C306.486 65.334 306.923 65.438 307.253 65.542C307.582 65.646 307.864 65.8237 308.098 66.075C308.332 66.3263 308.449 66.673 308.449 67.115C308.449 67.713 308.197 68.1897 307.695 68.545C307.201 68.8917 306.512 69.065 305.628 69.065Z" fill="black"/>
<circle cx="47.5" cy="46.5" r="30.5" fill="#CC20CD"/>
<circle cx="49" cy="44" r="28" fill="white"/>
<path fill-rule="evenodd" clip-rule="evenodd" d="M49 72C64.464 72 77 59.464 77 44C77 28.536 64.464 16 49 16C33.536 16 21 28.536 21 44C21 59.464 33.536 72 49 72ZM72.5 32C68.8333 35.8333 58.8 43.7 48 44.5C55 45 65 44 74.5 36.5C74.822 36.339 74.9658 36.2266 75.0227 36.1498C75.393 35.8209 75.5 35.5 75.5 35.5L73.5 30.5L72.5 32Z" fill="#EB7025"/>
<path d="M33.4116 68C28.2116 58 27.2449 36.5 27.4116 27C26.4116 28 22.9116 32 21.4116 39.5C18.9116 55.5 28.4116 63 33.4116 68Z" fill="#FDA027"/>
<path d="M61.0215 30.0916C57.4888 26.9915 52.9981 25.1995 48.3016 25.0157C43.6051 24.8319 38.9881 26.2675 35.2239 29.0821C31.4597 31.8967 28.777 35.9192 27.6252 40.476C26.4733 45.0327 26.9222 49.8469 28.8967 54.1121C30.8713 58.3773 34.2515 61.8345 38.4711 63.9046C42.6908 65.9747 47.4936 66.5319 52.0752 65.4829C56.6567 64.434 60.7387 61.8425 63.6373 58.1427C66.5359 54.4429 68.0751 49.8594 67.9972 45.1599L57.5163 45.3338C57.5544 47.6303 56.8022 49.8701 55.3857 51.6781C53.9693 53.486 51.9746 54.7524 49.7357 55.265C47.4969 55.7776 45.1499 55.5053 43.0879 54.4937C41.0259 53.4821 39.3741 51.7927 38.4092 49.7085C37.4443 47.6242 37.225 45.2717 37.7878 43.0449C38.3507 40.8182 39.6617 38.8525 41.5011 37.4771C43.3405 36.1017 45.5967 35.4002 47.8917 35.49C50.1867 35.5798 52.3812 36.4555 54.1075 37.9704L61.0215 30.0916Z" fill="white"/>
<path d="M76.983 41C77.0362 41.2838 77.077 41.6045 77.0996 41.9541C78.4864 55.5859 67.9033 68.0455 64.4829 70C60.9829 72 51.983 72 49.983 70C47.983 68 46.983 66 49.483 62C51.983 58 62.483 55 70.483 52C76.202 49.8554 77.2897 44.8894 77.0996 41.9541C77.0673 41.6366 77.0285 41.3186 76.983 41Z" fill="#CC20CD"/>
<path d="M23.9927 19.8074C23.7934 20.2036 23.2226 20.1813 23.0198 19.7686L20.8524 15.3635L15.9203 14.7178C15.4593 14.6571 15.2543 14.0801 15.581 13.763L19.2045 10.2345L18.3978 5.34554C18.3252 4.90479 18.7652 4.58335 19.163 4.78648L23.5754 7.04123L28.0384 4.66187C28.4398 4.4471 28.9271 4.8178 28.8441 5.27602L27.9607 10.1704L31.4984 13.5744C31.8299 13.893 31.6776 14.4436 31.2396 14.513L26.2543 15.2988L23.9918 19.808L23.9927 19.8074Z" fill="#FDA027"/>
<path d="M13.5157 33.5999C13.4052 33.9318 12.9571 33.9793 12.7519 33.6801L10.5595 30.4877L6.63609 30.5441C6.26936 30.549 6.04378 30.1219 6.26273 29.8373L8.69036 26.6713L7.50519 22.9465C7.39846 22.6107 7.70539 22.3098 8.03901 22.4232L11.7395 23.6819L14.953 21.3175C15.242 21.1042 15.6645 21.3382 15.6518 21.7054L15.5182 25.6263L18.6666 27.8816C18.9616 28.0926 18.9053 28.5397 18.5712 28.6436L14.7689 29.8235L13.5151 33.6005L13.5157 33.5999Z" fill="#FDA027"/>
<path d="M10.0032 49.3465C9.98861 49.6404 9.63621 49.7801 9.40243 49.584L6.90528 47.4921L3.73891 48.4235C3.44286 48.5103 3.16366 48.2151 3.27681 47.935L4.52918 44.8216L2.72801 42.0711C2.56572 41.8231 2.74649 41.51 3.04242 41.5265L6.32506 41.7111L8.39517 39.0698C8.58116 38.8317 8.97636 38.926 9.04889 39.2263L9.82584 42.4336L12.886 43.5503C13.1727 43.6547 13.228 44.0297 12.9808 44.1893L10.1662 46.0036L10.0029 49.3471L10.0032 49.3465Z" fill="#FDA027"/>
</svg>
