<svg width="78" height="77" viewBox="0 0 78 77" fill="none" xmlns="http://www.w3.org/2000/svg">
<circle cx="47.5" cy="46.5" r="30.5" fill="#CC20CD"/>
<circle cx="49" cy="44" r="28" fill="white"/>
<path fill-rule="evenodd" clip-rule="evenodd" d="M49 72C64.464 72 77 59.464 77 44C77 28.536 64.464 16 49 16C33.536 16 21 28.536 21 44C21 59.464 33.536 72 49 72ZM72.5 32C68.8333 35.8333 58.8 43.7 48 44.5C55 45 65 44 74.5 36.5C74.822 36.339 74.9658 36.2266 75.0227 36.1498C75.393 35.8209 75.5 35.5 75.5 35.5L73.5 30.5L72.5 32Z" fill="#EB7025"/>
<path d="M33.4116 68C28.2116 58 27.2449 36.5 27.4116 27C26.4116 28 22.9116 32 21.4116 39.5C18.9116 55.5 28.4116 63 33.4116 68Z" fill="#FDA027"/>
<path d="M61.0215 30.0916C57.4888 26.9915 52.9981 25.1995 48.3016 25.0157C43.6051 24.8319 38.9881 26.2675 35.2239 29.0821C31.4597 31.8967 28.777 35.9192 27.6252 40.476C26.4733 45.0327 26.9222 49.8469 28.8967 54.1121C30.8713 58.3773 34.2515 61.8345 38.4711 63.9046C42.6908 65.9747 47.4936 66.5319 52.0752 65.4829C56.6567 64.434 60.7387 61.8425 63.6373 58.1427C66.5359 54.4429 68.0751 49.8594 67.9972 45.1599L57.5163 45.3338C57.5544 47.6303 56.8022 49.8701 55.3857 51.6781C53.9693 53.486 51.9746 54.7524 49.7357 55.265C47.4969 55.7776 45.1499 55.5053 43.0879 54.4937C41.0259 53.4821 39.3741 51.7927 38.4092 49.7085C37.4443 47.6242 37.225 45.2717 37.7878 43.0449C38.3507 40.8182 39.6617 38.8525 41.5011 37.4771C43.3405 36.1017 45.5967 35.4002 47.8917 35.49C50.1867 35.5798 52.3812 36.4555 54.1075 37.9704L61.0215 30.0916Z" fill="white"/>
<path d="M76.983 41C77.0362 41.2838 77.077 41.6045 77.0996 41.9541C78.4864 55.5859 67.9033 68.0455 64.4829 70C60.9829 72 51.983 72 49.983 70C47.983 68 46.983 66 49.483 62C51.983 58 62.483 55 70.483 52C76.202 49.8554 77.2897 44.8894 77.0996 41.9541C77.0673 41.6366 77.0285 41.3186 76.983 41Z" fill="#CC20CD"/>
<path d="M23.9927 19.8074C23.7934 20.2036 23.2226 20.1813 23.0198 19.7686L20.8524 15.3635L15.9203 14.7178C15.4593 14.6571 15.2543 14.0801 15.581 13.763L19.2045 10.2345L18.3978 5.34554C18.3252 4.90479 18.7652 4.58335 19.163 4.78648L23.5754 7.04123L28.0384 4.66187C28.4398 4.4471 28.9271 4.8178 28.8441 5.27602L27.9607 10.1704L31.4984 13.5744C31.8299 13.893 31.6776 14.4436 31.2396 14.513L26.2543 15.2988L23.9918 19.808L23.9927 19.8074Z" fill="#FDA027"/>
<path d="M13.5157 33.5999C13.4052 33.9318 12.9571 33.9793 12.7519 33.6801L10.5595 30.4877L6.63609 30.5441C6.26936 30.549 6.04378 30.1219 6.26273 29.8373L8.69036 26.6713L7.50519 22.9465C7.39846 22.6107 7.70539 22.3098 8.03901 22.4232L11.7395 23.6819L14.953 21.3175C15.242 21.1042 15.6645 21.3382 15.6518 21.7054L15.5182 25.6263L18.6666 27.8816C18.9616 28.0926 18.9053 28.5397 18.5712 28.6436L14.7689 29.8235L13.5151 33.6005L13.5157 33.5999Z" fill="#FDA027"/>
<path d="M10.0032 49.3465C9.98861 49.6404 9.63621 49.7801 9.40243 49.584L6.90528 47.4921L3.73891 48.4235C3.44286 48.5103 3.16366 48.2151 3.27681 47.935L4.52918 44.8216L2.72801 42.0711C2.56572 41.8231 2.74649 41.51 3.04242 41.5265L6.32506 41.7111L8.39517 39.0698C8.58116 38.8317 8.97636 38.926 9.04889 39.2263L9.82584 42.4336L12.886 43.5503C13.1727 43.6547 13.228 44.0297 12.9808 44.1893L10.1662 46.0036L10.0029 49.3471L10.0032 49.3465Z" fill="#FDA027"/>
</svg>
