<svg width="28" height="28" viewBox="0 0 28 28" fill="none" xmlns="http://www.w3.org/2000/svg">
<circle cx="14" cy="14" r="14" fill="white"/>
<path d="M10.5 10H9.5H10.5ZM17 7H11C9.93913 7 8.92172 7.42143 8.17157 8.17157C7.42143 8.92172 7 9.93913 7 11V17C7 18.0609 7.42143 19.0783 8.17157 19.8284C8.92172 20.5786 9.93913 21 11 21H17C18.0609 21 19.0783 20.5786 19.8284 19.8284C20.5786 19.0783 21 18.0609 21 17V11C21 9.93913 20.5786 8.92172 19.8284 8.17157C19.0783 7.42143 18.0609 7 17 7V7ZM14 17C14.7956 17 15.5587 16.6839 16.1213 16.1213C16.6839 15.5587 17 14.7956 17 14C17 13.2044 16.6839 12.4413 16.1213 11.8787C15.5587 11.3161 14.7956 11 14 11C13.2044 11 12.4413 11.3161 11.8787 11.8787C11.3161 12.4413 11 13.2044 11 14C11 14.7956 11.3161 15.5587 11.8787 16.1213C12.4413 16.6839 13.2044 17 14 17Z" stroke="#271327"/>
</svg>
