<svg width="28" height="28" viewBox="0 0 28 28" fill="none" xmlns="http://www.w3.org/2000/svg">
<path d="M16.3377 13.7565L13.0623 12.2281C12.7765 12.0954 12.5417 12.2442 12.5417 12.5606V15.4394C12.5417 15.7558 12.7765 15.9046 13.0623 15.7719L16.3363 14.2435C16.6235 14.1094 16.6235 13.8906 16.3377 13.7565ZM14 0C6.26792 0 0 6.26792 0 14C0 21.7321 6.26792 28 14 28C21.7321 28 28 21.7321 28 14C28 6.26792 21.7321 0 14 0ZM14 19.6875C6.83375 19.6875 6.70833 19.0415 6.70833 14C6.70833 8.95854 6.83375 8.3125 14 8.3125C21.1663 8.3125 21.2917 8.95854 21.2917 14C21.2917 19.0415 21.1663 19.6875 14 19.6875Z" fill="white"/>
</svg>
